<svg xmlns="http://www.w3.org/2000/svg" xmlns:xlink="http://www.w3.org/1999/xlink" width="234" height="64" viewBox="0 0 234 64">
  <defs>
    <radialGradient id="radial-gradient" cx="0.503" cy="0.491" r="1.005" gradientTransform="translate(-0.309) scale(1.619 1)" gradientUnits="objectBoundingBox">
      <stop offset="0.3" stop-color="#00ff31"/>
      <stop offset="0.95" stop-color="#00aa31"/>
    </radialGradient>
    <radialGradient id="radial-gradient-2" cx="0.441" cy="0.346" r="0.659" gradientTransform="translate(-0.062) scale(1.124 1)" xlink:href="#radial-gradient"/>
    <radialGradient id="radial-gradient-3" cx="0.506" cy="0.472" r="1.508" gradientTransform="translate(-0.473) scale(1.946 1)" xlink:href="#radial-gradient"/>
  </defs>
  <g id="Group_30706" data-name="Group 30706" transform="translate(-47.974 -212)">
    <path id="Path_65985" data-name="Path 65985" d="M83.524,229.577v16.056a12.748,12.748,0,1,0,25.491,0V229.577a12.748,12.748,0,1,0-25.491,0Z" transform="translate(-23.746 -3.046)" fill="url(#radial-gradient)"/>
    <g id="Group_30706-2" data-name="Group 30706" transform="translate(47.974 212)">
      <path id="Path_65986" data-name="Path 65986" d="M47.974,222.449c0-9.37,6.489-13.147,14.421-8.393l35.538,21.3c7.932,4.754,7.932,12.533,0,17.287l-35.538,21.3c-7.932,4.754-14.421.977-14.421-8.393Z" transform="translate(-47.974 -212)" fill="url(#radial-gradient-2)"/>
    </g>
    <path id="Path_65987" data-name="Path 65987" d="M100.278,222.6a10.86,10.86,0,0,0-10.754,10.947V249.6a10.755,10.755,0,1,0,21.507,0V233.548A10.86,10.86,0,0,0,100.278,222.6Z" transform="translate(-27.754 -7.018)" fill="#fff"/>
    <path id="Path_65988" data-name="Path 65988" d="M100.278,222.6a10.86,10.86,0,0,0-10.754,10.947V249.6a10.755,10.755,0,1,0,21.507,0V233.548A10.86,10.86,0,0,0,100.278,222.6Z" transform="translate(-27.754 -7.018)" fill="#fff"/>
    <g id="Group_30707" data-name="Group 30707" transform="translate(65.452 220.958)">
      <path id="Path_65989" data-name="Path 65989" d="M109.186,241.916q4.249.7,4.249,2.86a2.209,2.209,0,0,1-2.2,2.215,2.532,2.532,0,0,1-.549-.059q-.268-.058-.7-.2t-.626-.195a5.174,5.174,0,0,0-1.635-.3,2.737,2.737,0,0,0-1.487.433,1.533,1.533,0,0,0-.762,1.2,1.242,1.242,0,0,0,.5,1.076,4.1,4.1,0,0,0,1.323.587q1.4.4,2.521.828a11.208,11.208,0,0,1,2.666,1.283,5.082,5.082,0,0,1,1.662,1.859,5.947,5.947,0,0,1,.589,2.779,6.439,6.439,0,0,1-1.51,4.341,7.4,7.4,0,0,1-4.044,2.22v1.971A1.839,1.839,0,0,1,108.8,266a1.294,1.294,0,0,1-1.068.482,1.34,1.34,0,0,1-1.087-.488,1.8,1.8,0,0,1-.4-1.181v-1.783a12.04,12.04,0,0,1-3.3-.708q-2.328-.909-2.328-2.527a2.542,2.542,0,0,1,.557-1.588,1.678,1.678,0,0,1,1.376-.722,3.016,3.016,0,0,1,1.024.151l1.607.556a8.112,8.112,0,0,0,2.2.429,2.978,2.978,0,0,0,1.8-.557,1.821,1.821,0,0,0,.767-1.564,1.65,1.65,0,0,0-.966-1.512,18.065,18.065,0,0,0-2.779-.986q-1.629-.466-2.45-.793a4.654,4.654,0,0,1-1.537-1.028,5.11,5.11,0,0,1-1.162-1.741,5.4,5.4,0,0,1-.408-2.051,6.687,6.687,0,0,1,.214-1.681,6.275,6.275,0,0,1,.632-1.561,6.421,6.421,0,0,1,1.031-1.347,7.645,7.645,0,0,1,3.724-1.851V240.17a1.8,1.8,0,0,1,.4-1.181,1.338,1.338,0,0,1,1.087-.489,1.3,1.3,0,0,1,1.053.485,1.791,1.791,0,0,1,.4,1.182Z" transform="translate(-100.611 -238.5)" fill="url(#radial-gradient-3)"/>
    </g>
    <g id="Group_30708" data-name="Group 30708" transform="translate(111.504 225.312)">
      <path id="Path_65990" data-name="Path 65990" d="M243.534,266.051H242c-1.906,0-2.7-.757-2.7-2.272s.79-2.272,2.7-2.272h1.534v-3.455c0-4.354,3.533-6.673,7.484-6.673,2.464,0,4.463.994,4.463,3.313a2.3,2.3,0,0,1-2.185,2.366c-.511,0-.976-.142-1.488-.142a1.432,1.432,0,0,0-1.488,1.609v2.982h2.092c2,0,3.068.615,3.068,2.272s-1.069,2.272-3.068,2.272h-2.092v17.368a3.394,3.394,0,1,1-6.787,0Z" transform="translate(-239.304 -251.38)" fill="#fff"/>
      <path id="Path_65991" data-name="Path 65991" d="M296.635,294.306a5.848,5.848,0,0,0,7.662,4.426c4.939-1.347,4.073-4.639,6.722-5.361a2.8,2.8,0,0,1,3.38,1.871c1.059,4.023-4.779,7.624-8.731,8.7-9.16,2.5-14.278-2.866-15.806-8.672-2.045-7.771,1.208-14.244,8.976-16.363,7.543-2.058,13.286,2.206,14.73,7.691.6,2.286.085,3.064-2.116,3.664Zm10.484-6.975a5.787,5.787,0,0,0-6.918-3.8c-3.278.894-4.712,3.49-4.577,6.932Z" transform="translate(-272.675 -269.254)" fill="#fff"/>
      <path id="Path_65992" data-name="Path 65992" d="M377.04,294.306a5.848,5.848,0,0,0,7.662,4.426c4.939-1.347,4.073-4.639,6.722-5.361a2.8,2.8,0,0,1,3.38,1.871c1.059,4.023-4.779,7.624-8.731,8.7-9.16,2.5-14.278-2.866-15.806-8.672-2.046-7.771,1.208-14.244,8.976-16.363,7.544-2.058,13.286,2.206,14.73,7.691.6,2.286.085,3.064-2.116,3.664Zm10.484-6.975a5.787,5.787,0,0,0-6.919-3.8c-3.278.894-4.712,3.49-4.576,6.932Z" transform="translate(-326.383 -269.254)" fill="#fff"/>
      <path id="Path_65993" data-name="Path 65993" d="M449.472,270.87H448.31c-1.906,0-2.7-.757-2.7-2.272s.79-2.272,2.7-2.272h1.162v-4.212a3.394,3.394,0,1,1,6.787,0v4.212H458.3c2,0,3.068.615,3.068,2.272s-1.069,2.272-3.068,2.272h-2.045v13.819c0,1.041.557,1.609,1.766,1.609H459a2.146,2.146,0,0,1,2.37,2.319c0,1.988-1.673,3.076-4.927,3.076-4.927,0-6.973-2.082-6.973-6.152Z" transform="translate(-377.11 -256.199)" fill="#fff"/>
      <path id="Path_65994" data-name="Path 65994" d="M520.494,302.047c0,2.082-.93,3.454-3.068,3.454s-3.068-1.372-3.068-3.454v-.9h-.093a9.687,9.687,0,0,1-8.228,4.354c-4.091,0-8.553-2.082-8.553-9.086v-13.44c0-1.846.744-3.455,3.393-3.455s3.393,1.609,3.393,3.455v12.068c0,2.792,1.348,4.78,4.277,4.78a5.319,5.319,0,0,0,5.16-5.442V282.975c0-1.846.744-3.455,3.393-3.455s3.394,1.609,3.394,3.455Z" transform="translate(-411.756 -270.008)" fill="#fff"/>
      <path id="Path_65995" data-name="Path 65995" d="M577.843,282.738a3.071,3.071,0,1,1,6.136,0v2.65h.093c.79-2.887,2.324-5.868,5.625-5.868a3.449,3.449,0,0,1,3.719,3.36,3.129,3.129,0,0,1-3.347,3.455H588.86c-2.742,0-4.23,1.94-4.23,7.666v8.046c0,1.845-.744,3.454-3.393,3.454s-3.393-1.609-3.393-3.454Z" transform="translate(-465.433 -270.008)" fill="#fff"/>
      <path id="Path_65996" data-name="Path 65996" d="M631.322,282.738a3.072,3.072,0,1,1,6.136,0v2.65h.093c.79-2.887,2.324-5.868,5.624-5.868a3.449,3.449,0,0,1,3.719,3.36,3.129,3.129,0,0,1-3.347,3.455h-1.209c-2.743,0-4.23,1.94-4.23,7.666v8.046c0,1.845-.744,3.454-3.394,3.454s-3.393-1.609-3.393-3.454Z" transform="translate(-501.155 -270.008)" fill="#fff"/>
      <path id="Path_65997" data-name="Path 65997" d="M683.889,293.812a5.909,5.909,0,0,0,6.276,6.294c5.113,0,5.113-3.407,7.857-3.407a2.827,2.827,0,0,1,2.789,2.7c0,4.165-6.554,6.1-10.645,6.1-9.483,0-13.062-6.531-13.062-12.541,0-8.045,4.788-13.44,12.83-13.44,7.81,0,12.272,5.632,12.272,11.311,0,2.366-.7,2.981-2.975,2.981Zm11.9-3.976a5.85,5.85,0,0,0-5.718-5.489c-3.393,0-5.439,2.13-6.183,5.489Z" transform="translate(-531.734 -270.008)" fill="#fff"/>
    </g>
    <path id="Path_65998" data-name="Path 65998" d="M84.185,310.7l3.983-2.387V302.2a18.054,18.054,0,0,0,15.771-17.958v-7.3a2.044,2.044,0,0,0-.589-1.428,1.9,1.9,0,0,0-2.8,0,2.05,2.05,0,0,0-.589,1.436c0-.008,0,7.29,0,7.29a13.782,13.782,0,1,1-27.559,0v-7.3a2.062,2.062,0,0,0-1.961-2.05,1.973,1.973,0,0,0-1.423.611,2.046,2.046,0,0,0-.6,1.448c0-.009,0,7.289,0,7.289A18.054,18.054,0,0,0,84.185,302.2Z" transform="translate(-13.652 -41.635)" fill="#fff"/>
  </g>
</svg>
