<?xml version="1.0" encoding="UTF-8"?> <svg xmlns="http://www.w3.org/2000/svg" width="654" height="405" viewBox="0 0 654 405" fill="none"><mask id="mask0" maskUnits="userSpaceOnUse" x="0" y="0" width="654" height="405"><rect width="654" height="405" fill="#C4C4C4"></rect></mask><g mask="url(#mask0)"><path d="M101.773 105.173C64.0839 130.701 57.9732 175.492 61.8753 202.623C65.7775 229.754 63.8737 259.867 33.4102 283.006C2.94672 306.144 0.0372476 348.027 24.5063 371.018C50.9453 395.902 115.175 429.785 190.228 384.83C232.68 358.673 266.021 320.1 285.71 274.362C302.031 236.319 308.081 204.52 291.892 185.557C275.704 166.595 257.139 177.627 248.806 181.55C240.473 185.474 215.917 191.339 207.227 147.744C196.894 95.7222 143.926 76.6607 101.773 105.173Z" fill="#F6FBFE"></path><path d="M484.773 170.459C447.084 195.987 440.973 240.778 444.875 267.908C448.777 295.039 446.874 325.153 416.41 348.291C385.947 371.429 383.037 413.312 407.506 436.304C433.945 461.188 498.175 495.07 573.228 450.116C615.68 423.958 649.021 385.385 668.71 339.647C685.031 301.605 691.081 269.805 674.892 250.843C658.704 231.88 640.139 242.912 631.806 246.836C623.473 250.759 598.917 256.624 590.227 213.03C579.894 161.008 526.926 141.946 484.773 170.459Z" fill="#F6FBFE"></path><path d="M373.517 204.935H243.795C238.285 204.935 233.816 201.023 233.816 196.196V56.3688C233.816 51.5416 238.285 47.6292 243.795 47.6292H373.517C379.026 47.6292 383.495 51.5416 383.495 56.3688V196.196C383.495 201.024 379.026 204.935 373.517 204.935Z" stroke="#C6D1EA" stroke-width="1.02513" stroke-miterlimit="10" stroke-dasharray="4.12 4.12"></path><path d="M144.099 90.2867C143.83 97.652 134.02 102.116 134.141 109.484C134.194 112.647 136.155 115.486 136.54 118.625C137.058 122.845 134.708 126.829 133.828 130.995C132.034 139.57 137.02 148.612 144.415 153.308C151.811 158.003 161.096 158.895 169.765 157.709" fill="#0C0042"></path><path d="M203.388 88.4824C203.096 92.4361 205.708 95.9653 208.337 98.934C210.967 101.903 213.896 104.99 214.464 108.914C215.472 115.867 208.661 122.322 210.069 129.206C210.82 132.895 213.842 135.86 214.38 139.59C214.901 143.194 212.969 146.723 210.574 149.468C208.18 152.212 205.407 151.81 203.29 154.771C200.828 158.104 197.698 160.886 194.1 162.94C186.464 167.118 177.316 161.074 173.637 159.988" fill="#0C0042"></path><path d="M190.281 178.05C190.33 169.822 190.379 161.804 190.382 161.847C190.382 161.847 203.452 159.647 206.123 142.581C207.452 134.097 206.994 120.186 206.253 108.818C205.584 98.5866 198.77 86.0444 188.583 87.147L156.759 95.2636C155.265 95.4253 153.887 96.1414 152.895 97.2704C151.903 98.3993 151.371 99.8591 151.404 101.361L154.317 178.621C154.495 183.333 156.516 187.786 159.945 191.023C163.374 194.259 167.936 196.02 172.65 195.926C177.34 195.833 181.808 193.912 185.101 190.573C188.395 187.233 190.254 182.739 190.281 178.048" fill="#FFBD9D"></path><path d="M237.289 380.584C235.79 359.645 228.767 327.455 227.765 327.675L131.252 326.095C131.252 326.095 123.125 358.876 119.035 380.584H237.289Z" fill="#0C0042"></path><path d="M240.602 240.91L254.94 176.342L255.769 165.653C255.769 165.653 259.052 141.686 259.075 139.344C259.1 136.636 260.411 135.999 261.409 136.076C262.963 136.196 264.043 138.123 264.093 140.448C264.11 141.249 263.869 153.932 263.869 153.932C264.62 152.742 265.453 151.607 266.363 150.534C268.265 148.181 272.685 146.869 277.205 147.068C281.725 147.266 282.971 147.717 282.978 149.474C282.963 149.807 282.873 150.132 282.717 150.425C282.56 150.719 282.34 150.973 282.072 151.171C281.231 151.859 280.166 152.213 279.08 152.167C271.84 151.954 269.849 155.803 269.849 155.803L269.741 157.202C269.741 157.202 274.169 154.106 277.666 155.471C278.182 155.671 278.654 155.969 279.056 156.349C280.022 156.377 280.965 156.644 281.802 157.129C282.638 157.613 283.339 158.298 283.843 159.123C284.346 159.994 284.613 160.981 284.618 161.986C284.624 162.992 284.369 163.981 283.877 164.858C283.683 165.296 283.359 165.665 282.95 165.914C282.54 166.164 282.065 166.282 281.586 166.254C281.103 166.102 280.665 165.83 280.314 165.463C280.116 165.283 279.902 165.12 279.674 164.978L278.821 168.852C278.821 168.852 276.442 177.454 275.828 181.316L271.993 245.302C271.867 247.41 271.322 249.471 270.39 251.366C269.458 253.261 268.158 254.951 266.566 256.338C264.974 257.725 263.121 258.781 261.116 259.444C259.111 260.107 256.995 260.363 254.889 260.199C252.62 260.023 250.415 259.361 248.424 258.259C246.432 257.157 244.701 255.64 243.347 253.81C241.992 251.981 241.047 249.882 240.574 247.656C240.101 245.43 240.111 243.127 240.605 240.906" fill="#FFBD9D"></path><path d="M256.825 165.971C257.191 165.638 257.603 165.356 258.047 165.136C258.861 164.644 260.05 163.956 261.53 163.117L266.745 160.216C267.238 159.944 267.742 159.667 268.257 159.385C268.819 158.953 269.528 158.759 270.231 158.846C270.449 158.921 270.639 159.059 270.778 159.243C270.916 159.427 270.996 159.648 271.007 159.878C271.025 160.256 270.953 160.632 270.796 160.976C270.513 161.587 270.161 162.163 269.747 162.694C268.072 164.487 266.272 166.16 264.363 167.702C263.606 168.402 262.959 169.213 262.445 170.107C261.987 170.947 261.681 171.832 261.333 172.622C261.109 173.288 260.742 173.897 260.258 174.406C259.773 174.916 259.183 175.313 258.529 175.569C258.29 175.671 258.03 175.718 257.77 175.706C257.51 175.693 257.257 175.622 257.028 175.497C257.503 175.51 257.977 175.438 258.427 175.284C259.004 174.996 259.516 174.592 259.929 174.097C260.342 173.602 260.647 173.026 260.826 172.407C261.131 171.634 261.4 170.727 261.875 169.803C262.397 168.834 263.066 167.952 263.86 167.19C265.715 165.64 267.475 163.98 269.132 162.219C269.505 161.739 269.825 161.219 270.086 160.669C270.318 160.153 270.294 159.626 269.993 159.571C269.676 159.458 269.124 159.756 268.619 160.029L267.092 160.839L261.797 163.598C260.285 164.374 259.048 164.989 258.195 165.4C257.764 165.65 257.302 165.841 256.82 165.968" fill="black"></path><path d="M264.065 139.552C263.967 140.388 263.945 141.232 263.999 142.073V148.142C263.966 150.42 263.934 152.482 263.906 154.212C263.841 155.051 263.85 155.894 263.934 156.732C264.136 155.912 264.246 155.072 264.262 154.227C264.386 152.676 264.482 150.524 264.502 148.146C264.522 145.769 264.456 143.615 264.349 142.062C264.346 141.217 264.248 140.375 264.059 139.552" fill="black"></path><path d="M270.761 172.672C270.367 172.551 269.945 172.551 269.55 172.672C268.515 172.885 267.58 173.436 266.893 174.239L267.318 174.368C267.264 173.8 267.177 173.235 267.056 172.676C266.714 170.7 265.828 168.857 264.5 167.354C265.379 169.085 266.071 170.905 266.566 172.782C266.688 173.35 266.778 173.904 266.84 174.417L266.908 174.987L267.264 174.546C267.881 173.801 268.702 173.251 269.625 172.963C270.317 172.747 270.763 172.734 270.761 172.667" fill="black"></path><path d="M137.622 294.62L132.815 292.592L132.775 290.97L129.673 287.574L136.118 248.061L142.186 279.214L137.622 294.62ZM249.406 188.845L241.178 234.849L225.144 198.162C224.023 194.66 222.078 191.478 219.472 188.884C211.568 181.904 198.899 179.61 193.255 178.909C193.39 177.967 193.571 177.023 193.729 176.095C194.131 173.741 194.188 171.055 192.581 169.282C190.975 167.509 188.352 167.297 185.984 167.198L156.688 165.926C154.69 165.839 152.374 165.886 151.123 167.453C150.691 167.936 150.374 168.51 150.195 169.134C150.017 169.757 149.982 170.412 150.094 171.051C150.886 173.799 151.126 176.677 150.799 179.519L124.079 186.322L124.099 186.426C118.27 188.669 107.516 202.896 105.501 223.669C104.493 234.053 99.2898 276.569 96.7747 297.008C96.3337 300.628 96.8712 304.3 98.3312 307.641C99.7913 310.983 102.12 313.872 105.076 316.007C118.667 325.875 145.864 341.4 182.042 340.968L203.966 322.58L180.46 312.672C201.912 314.023 222.609 315.372 222.795 315.566C222.964 315.735 224.64 302.854 226.53 287.838L242.904 306.247C250.975 304.543 258.294 300.316 263.803 294.177C269.312 288.038 272.726 280.305 273.55 272.098L278.194 192.934L249.406 188.845Z" fill="#188EF8"></path><path d="M202.964 86.3772C201.967 82.5973 200.005 79.1416 197.269 76.3494C194.533 73.5572 191.118 71.5245 187.36 70.451C183.576 69.4665 179.602 69.4832 175.827 70.4993C172.052 71.5153 168.606 73.4959 165.827 76.2463C163.598 78.508 161.825 81.2736 159.191 83.0466C156.216 85.0501 152.505 85.5464 149.167 86.8643C145.828 88.1822 142.513 90.9478 142.615 94.5335L141.426 115.696C141.52 118.251 143.834 120 146.401 120.449L147.89 152.365L149.536 152.342C154.228 153.289 154.644 150.902 158.151 147.643C159.895 145.994 161.229 143.96 162.048 141.703C162.866 139.447 163.146 137.03 162.865 134.646C162.335 130.456 160.076 126.194 161.529 122.229C163.45 116.985 170.798 115.372 172.748 110.142C173.755 107.442 173.075 104.339 173.805 101.59C176.481 101.789 179.139 102.182 181.758 102.765C187.745 103.986 194.67 104.864 199.343 100.932C203.368 97.5389 204.243 91.5007 202.961 86.394" fill="#0C0042"></path><path d="M138.812 117.533C138.481 114.719 137.272 112.08 135.355 109.992C133.439 107.905 130.913 106.474 128.137 105.905C125.338 105.454 122.469 105.898 119.936 107.173C117.404 108.447 115.338 110.488 114.033 113.004C111.663 117.824 112.483 123.694 114.697 128.581C117.327 134.396 122.714 139.709 129.09 139.423C135.087 139.15 139.916 133.883 141.643 128.135C143.37 122.387 142.674 116.223 141.961 110.26" fill="#0C0042"></path><path d="M265.619 248.17C265.619 248.17 248.247 330.94 248.247 329.853C248.247 328.866 160.546 333.615 144.851 334.304L141.584 333.51L116.828 310.721L145.309 308.43L155.495 250.192L247.059 248.512L265.619 248.17Z" fill="#C6D1EA"></path><path d="M221.682 332.395L222.804 318.918C222.192 318.828 221.567 318.873 220.975 319.052C220.383 319.23 219.837 319.538 219.377 319.952C218.918 320.365 218.555 320.876 218.315 321.446C218.075 322.016 217.964 322.633 217.99 323.251V314.907C217.99 314.907 212.856 313.783 211.729 320.523C211.215 324.077 210.3 327.561 209 330.908L206.274 332.401L208.843 316.839C208.843 316.839 203.387 317.32 202.429 322.454C201.885 325.432 201.074 328.356 200.006 331.189L191.387 333.599C191.387 333.599 196.333 329.187 195.852 327.742C195.371 326.297 195.699 326.388 194.73 326.184C193.116 326.174 191.529 326.592 190.13 327.394C188.563 328.228 179.484 333.599 179.484 333.599V340.254C179.484 340.254 200.617 341.781 205.386 340.894L214.631 338.756C216.249 338.381 217.746 337.601 218.98 336.488C220.214 335.376 221.145 333.968 221.685 332.397" fill="#FFBD9D"></path><path d="M201.492 288.126C201.141 289.725 201.437 291.398 202.315 292.78C203.194 294.161 204.583 295.139 206.18 295.499C207.808 295.674 209.438 295.198 210.716 294.175C211.994 293.151 212.814 291.663 212.998 290.037C213.349 288.438 213.053 286.766 212.175 285.385C211.297 284.004 209.908 283.026 208.312 282.665C206.684 282.49 205.053 282.966 203.776 283.99C202.498 285.013 201.677 286.5 201.492 288.126Z" fill="#FAFAFA"></path><path d="M190.384 161.847C182.352 161.987 174.438 159.896 167.523 155.805C167.716 155.844 173.815 167.664 190.161 165.884L190.384 161.847Z" fill="black"></path><path d="M226.069 248.954C226.284 245.525 225.894 242.085 224.916 238.791C223.294 233.984 221.173 229.944 219.992 226.879C219.381 225.352 218.935 224.105 218.654 223.23C218.539 222.765 218.377 222.314 218.172 221.881C218.194 222.362 218.277 222.837 218.418 223.297C218.733 224.565 219.12 225.814 219.577 227.038C220.661 230.164 222.723 234.252 224.311 238.985C225.269 242.217 225.678 245.587 225.522 248.954H226.069Z" fill="black"></path><path d="M139.577 225.077C139.492 225.276 139.434 225.485 139.406 225.7C139.307 226.184 139.186 226.78 139.038 227.508C138.733 229.174 138.316 231.43 137.817 234.177C136.81 239.814 135.473 247.616 134.068 256.233C132.663 264.851 131.472 272.682 130.69 278.356C130.297 281.192 130.019 283.495 129.847 285.088C129.783 285.827 129.729 286.435 129.685 286.92C129.652 287.134 129.647 287.35 129.671 287.565C129.745 287.362 129.793 287.15 129.812 286.934C129.885 286.447 129.978 285.845 130.089 285.112C130.351 283.432 130.7 281.174 131.131 278.416C132.047 272.68 133.307 264.913 134.689 256.329C136.071 247.745 137.328 239.98 138.255 234.246C138.679 231.483 139.029 229.217 139.287 227.542C139.388 226.807 139.471 226.202 139.538 225.709C139.58 225.497 139.596 225.281 139.584 225.065" fill="black"></path><path d="M241.351 248.647C241.269 245.477 241.276 239.987 241.351 237.907C241.449 236.784 241.459 235.655 241.382 234.531C241.101 235.627 240.941 236.75 240.905 237.881C240.724 239.963 240.646 245.473 240.728 248.666L241.351 248.647Z" fill="black"></path><path d="M118.996 295.602C119.095 295.623 119.275 294.806 119.851 293.624C120.595 292.089 121.695 290.753 123.058 289.727C124.438 288.724 126.036 288.064 127.722 287.801C129.021 287.597 129.86 287.664 129.86 287.56C129.158 287.31 128.404 287.241 127.668 287.36C125.865 287.503 124.137 288.147 122.681 289.22C121.229 290.299 120.108 291.763 119.443 293.446C119.115 294.115 118.961 294.857 118.997 295.602" fill="black"></path><path d="M125.637 299.175C126.564 297.771 127.616 296.454 128.78 295.239C130.088 294.175 131.49 293.231 132.967 292.418C131.213 292.668 129.593 293.497 128.364 294.774C126.987 295.894 126.027 297.444 125.637 299.175Z" fill="black"></path><path d="M147.931 299.193C147.994 299.024 144.558 297.623 140.38 295.771C136.202 293.918 132.85 292.326 132.766 292.484C135.078 294.024 137.544 295.318 140.125 296.347C142.621 297.564 145.237 298.518 147.931 299.193Z" fill="black"></path><path d="M153.727 180.374C154.117 180.775 154.546 181.136 155.008 181.452C156.237 182.352 157.525 183.168 158.864 183.895C163.308 186.3 168.189 187.789 173.219 188.275C175.984 188.563 178.774 188.509 181.526 188.115C183.786 187.8 185.975 187.093 187.992 186.026C189.354 185.304 190.563 184.326 191.553 183.145C191.823 182.828 192.063 182.487 192.271 182.127C192.424 181.881 192.485 181.748 192.466 181.737C191.201 183.355 189.604 184.683 187.783 185.632C185.788 186.615 183.645 187.26 181.439 187.54C178.732 187.894 175.993 187.93 173.278 187.647C168.328 187.159 163.512 185.753 159.076 183.501C155.668 181.773 153.803 180.278 153.731 180.378" fill="black"></path><path d="M275.18 110.642C275.18 114.226 272.279 115.51 268.69 115.51C265.101 115.51 262.2 114.226 262.2 110.642V108.904C260.226 107.764 258.588 106.126 257.449 104.152C256.31 102.179 255.711 99.9401 255.711 97.6615C255.711 94.2188 257.079 90.9172 259.513 88.4829C261.947 86.0486 265.249 84.681 268.691 84.681C272.134 84.681 275.436 86.0486 277.87 88.4829C280.304 90.9172 281.672 94.2188 281.672 97.6615C281.673 99.9404 281.074 102.179 279.934 104.153C278.795 106.127 277.156 107.765 275.182 108.904L275.18 110.642Z" fill="#0D3BFB"></path><path d="M265.444 99.2856C265.444 98.8556 265.273 98.4433 264.969 98.1393C264.665 97.8352 264.253 97.6642 263.823 97.6638C263.392 97.6638 262.98 97.8346 262.675 98.1387C262.371 98.4428 262.2 98.8553 262.199 99.2856C262.2 99.7159 262.371 100.128 262.675 100.432C262.98 100.737 263.392 100.907 263.823 100.907C264.253 100.907 264.665 100.736 264.969 100.432C265.273 100.128 265.444 99.7156 265.444 99.2856V99.2856Z" stroke="white" stroke-width="0.512567" stroke-miterlimit="10"></path><path d="M263.824 100.907H273.56" stroke="white" stroke-width="0.512567" stroke-miterlimit="10"></path><path fill-rule="evenodd" clip-rule="evenodd" d="M263.824 118.756C263.824 119.428 264.369 119.973 265.041 119.973H272.342C273.015 119.973 273.56 119.428 273.56 118.756C273.56 118.083 273.015 117.538 272.342 117.538H265.041C264.369 117.538 263.824 118.083 263.824 118.756Z" fill="#0D3BFB"></path><path d="M290.33 100.45C288.52 100.146 286.876 99.2107 285.69 97.8097C284.505 96.4088 283.854 94.6331 283.853 92.7978C283.853 88.9541 290.029 84.3498 289.891 84.0139C289.719 83.5909 285.994 85.0309 283.853 85.0309C281.793 85.0305 279.818 84.2119 278.361 82.7551C276.905 81.2983 276.086 79.3226 276.086 77.2625C276.086 75.1246 277.511 71.3938 277.084 71.2136C276.755 71.0777 272.166 77.2625 268.318 77.2625C264.47 77.2625 259.789 71.1129 259.416 71.2717C259.044 71.4305 260.55 75.1246 260.55 77.2625C260.55 79.3228 259.731 81.2988 258.274 82.7556C256.817 84.2125 254.841 85.0309 252.781 85.0309C250.643 85.0309 247.067 83.2564 246.958 83.5038C246.903 83.6291 252.781 88.9525 252.781 92.7963C252.781 94.6316 252.13 96.4073 250.944 97.8082C249.758 99.2091 248.115 100.145 246.305 100.449" stroke="#C6D1EA" stroke-width="1.02513" stroke-miterlimit="10"></path><path d="M441.748 40.2244H326.158C324.81 40.2242 323.476 40.4893 322.232 41.0047C320.987 41.5201 319.856 42.2757 318.903 43.2282C317.951 44.1807 317.195 45.3116 316.679 46.5562C316.164 47.8008 315.898 49.1348 315.898 50.482V116.696C315.898 118.043 316.164 119.377 316.679 120.622C317.195 121.866 317.951 122.997 318.903 123.95C319.856 124.902 320.987 125.658 322.232 126.173C323.476 126.689 324.81 126.954 326.158 126.954H410.391L425.64 140.982V126.954H441.748C443.095 126.954 444.429 126.688 445.673 126.173C446.918 125.657 448.048 124.902 449.001 123.949C449.953 122.997 450.709 121.866 451.224 120.621C451.74 119.377 452.005 118.043 452.005 116.696V50.482C452.005 49.1349 451.74 47.8011 451.224 46.5566C450.709 45.312 449.953 44.1813 449.001 43.2287C448.048 42.2762 446.918 41.5207 445.673 41.0052C444.429 40.4897 443.095 40.2244 441.748 40.2244Z" fill="#0D3BFB"></path><path d="M336.523 61.4648C336.523 63.0057 337.773 64.2549 339.313 64.2549H428.596C430.137 64.2549 431.386 63.0057 431.386 61.4648C431.386 59.9239 430.137 58.6748 428.596 58.6748H339.313C337.773 58.6748 336.523 59.9239 336.523 61.4648Z" fill="white"></path><path d="M336.523 76.8099C336.523 78.3508 337.773 79.6 339.313 79.6H428.596C430.137 79.6 431.386 78.3508 431.386 76.8099C431.386 75.269 430.137 74.0199 428.596 74.0199H339.313C337.773 74.0199 336.523 75.269 336.523 76.8099Z" fill="white"></path><path d="M336.523 92.1551C336.523 93.696 337.773 94.9452 339.313 94.9452H428.596C430.137 94.9452 431.386 93.696 431.386 92.1551C431.386 90.6143 430.137 89.3651 428.596 89.3651H339.313C337.773 89.3651 336.523 90.6143 336.523 92.1551Z" fill="white"></path><path d="M336.523 106.106C336.523 107.647 337.773 108.896 339.313 108.896H376.215C377.755 108.896 379.005 107.647 379.005 106.106C379.005 104.566 377.755 103.316 376.215 103.316H339.313C337.773 103.316 336.523 104.566 336.523 106.106Z" fill="white"></path><path d="M405.469 312.556H387.055C386.56 312.145 386.096 311.7 385.664 311.223H406.86C406.428 311.699 405.964 312.145 405.469 312.556ZM405.938 293.009H386.586C389.237 290.611 392.688 289.292 396.262 289.31C399.836 289.291 403.287 290.61 405.938 293.006V293.009Z" fill="white"></path><path d="M328.188 364.061V380.461H372.481C374.224 380.504 375.913 379.854 377.176 378.654C378.44 377.453 379.176 375.8 379.222 374.057V370.466C379.176 368.723 378.44 367.07 377.176 365.869C375.913 364.669 374.224 364.019 372.481 364.062L328.188 364.061Z" fill="white"></path><path d="M423.447 363.144H329.475C329.142 363.136 328.82 363.26 328.579 363.489C328.337 363.718 328.197 364.033 328.188 364.366V380.136C328.197 380.469 328.337 380.784 328.579 381.013C328.82 381.242 329.142 381.366 329.475 381.358H423.447C425.926 381.421 428.329 380.496 430.127 378.789C431.925 377.081 432.972 374.729 433.037 372.25C432.971 369.772 431.924 367.421 430.126 365.714C428.328 364.006 425.926 363.082 423.447 363.144Z" fill="black"></path><path d="M328.188 363.144V381.361H361.292C363.227 381.408 365.101 380.686 366.504 379.352C367.907 378.019 368.723 376.184 368.775 374.249V370.258C368.724 368.323 367.907 366.487 366.504 365.154C365.102 363.82 363.227 363.098 361.292 363.144H328.188Z" fill="white"></path><path d="M369.588 371.979H368.782V370.255C368.783 369.088 368.483 367.94 367.91 366.923C368.966 368.4 369.552 370.163 369.588 371.979Z" fill="#D9C9A8"></path><path d="M368.781 371.979H328.188V364.06H362.595C363.645 364.082 364.675 364.353 365.599 364.852C366.523 365.351 367.315 366.062 367.909 366.928C368.482 367.946 368.782 369.093 368.781 370.261V371.979Z" fill="#DDE2E9"></path><path d="M326.201 379.536H360.838C362.769 379.603 364.654 378.942 366.122 377.686C367.589 376.429 368.532 374.668 368.763 372.75C368.808 371.726 368.642 370.704 368.275 369.748C367.908 368.792 367.347 367.921 366.629 367.191C365.911 366.46 365.05 365.885 364.101 365.502C363.151 365.118 362.132 364.934 361.108 364.961H326.201C326.078 364.964 325.955 364.943 325.841 364.899C325.726 364.854 325.621 364.787 325.531 364.702C325.442 364.617 325.371 364.515 325.321 364.403C325.272 364.29 325.245 364.168 325.242 364.045C325.245 363.922 325.272 363.8 325.321 363.688C325.371 363.575 325.442 363.473 325.531 363.388C325.621 363.303 325.726 363.236 325.841 363.191C325.955 363.147 326.078 363.126 326.201 363.129H360.78C363.195 363.046 365.554 363.874 367.388 365.449C369.222 367.024 370.396 369.231 370.678 371.632C370.734 372.91 370.525 374.186 370.065 375.38C369.606 376.574 368.905 377.66 368.007 378.572C367.11 379.483 366.034 380.2 364.846 380.677C363.659 381.154 362.387 381.382 361.108 381.346H326.201C326.078 381.349 325.955 381.328 325.84 381.283C325.725 381.239 325.62 381.172 325.531 381.087C325.442 381.002 325.37 380.9 325.321 380.787C325.271 380.674 325.245 380.553 325.242 380.429C325.253 380.185 325.36 379.954 325.539 379.787C325.719 379.62 325.956 379.53 326.201 379.536Z" fill="#0D346D"></path><path d="M321.716 342.681H428.571C428.627 342.68 428.682 342.701 428.723 342.74C428.764 342.779 428.788 342.832 428.789 342.889V362.929C428.789 362.957 428.783 362.985 428.771 363.01C428.76 363.036 428.744 363.059 428.723 363.078C428.703 363.098 428.679 363.113 428.653 363.123C428.627 363.133 428.599 363.137 428.571 363.137H321.716C321.688 363.137 321.66 363.133 321.634 363.123C321.607 363.113 321.583 363.098 321.563 363.078C321.543 363.059 321.526 363.036 321.515 363.01C321.503 362.985 321.497 362.957 321.496 362.929V342.892C321.497 342.863 321.503 342.836 321.514 342.81C321.526 342.784 321.542 342.76 321.562 342.741C321.583 342.721 321.607 342.706 321.633 342.696C321.66 342.685 321.688 342.68 321.716 342.681Z" fill="#0D3BFB"></path><path d="M405.555 363.144H409.557V342.681H405.555V363.144Z" fill="#F3F4F5"></path><path d="M335.371 363.144H339.374V342.681H335.371V363.144Z" fill="#F3F4F5"></path><path d="M343.91 359.415H400.59V346.487H343.91V359.415Z" fill="white"></path><path d="M327.401 331.452C325.872 331.414 324.391 331.984 323.282 333.038C322.173 334.091 321.528 335.542 321.488 337.07C321.529 338.599 322.174 340.049 323.283 341.102C324.392 342.155 325.873 342.724 327.401 342.686H424.507V331.452H327.401Z" fill="#C7D0E9"></path><path d="M424.509 331.452V342.681H404.095C402.901 342.711 401.744 342.267 400.878 341.444C400.012 340.622 399.508 339.49 399.477 338.297V335.835C399.508 334.641 400.012 333.508 400.878 332.685C401.743 331.863 402.901 331.418 404.095 331.447L424.509 331.452Z" fill="white"></path><path d="M424.509 331.452V342.681H404.095C402.901 342.711 401.744 342.267 400.878 341.444C400.012 340.622 399.508 339.49 399.477 338.297V335.835C399.508 334.641 400.012 333.508 400.878 332.685C401.743 331.863 402.901 331.418 404.095 331.447L424.509 331.452Z" fill="white"></path><path d="M424.509 336.994H399.484C399.544 335.48 400.197 334.05 401.302 333.013C402.407 331.976 403.875 331.416 405.39 331.452H424.509V336.994Z" fill="#DDE2E9"></path><path d="M425.735 341.561H404.375C403.185 341.602 402.022 341.195 401.117 340.42C400.212 339.645 399.631 338.558 399.489 337.375C399.461 336.744 399.564 336.114 399.79 335.525C400.017 334.936 400.362 334.399 400.805 333.949C401.248 333.498 401.778 333.144 402.364 332.908C402.95 332.672 403.578 332.559 404.209 332.575H425.741C425.894 332.579 426.042 332.522 426.153 332.417C426.264 332.311 426.328 332.166 426.332 332.013C426.328 331.861 426.264 331.716 426.153 331.61C426.042 331.505 425.894 331.448 425.741 331.452H404.411C402.92 331.398 401.464 331.908 400.332 332.88C399.2 333.852 398.475 335.214 398.302 336.696C398.268 337.484 398.397 338.27 398.681 339.006C398.964 339.742 399.396 340.412 399.95 340.974C400.503 341.535 401.167 341.977 401.898 342.272C402.63 342.566 403.414 342.707 404.203 342.685H425.735C425.811 342.687 425.886 342.674 425.957 342.647C426.027 342.62 426.092 342.579 426.147 342.527C426.202 342.475 426.246 342.413 426.276 342.344C426.307 342.275 426.324 342.2 426.326 342.124C426.324 342.049 426.308 341.974 426.277 341.905C426.246 341.835 426.202 341.773 426.147 341.72C426.092 341.668 426.028 341.627 425.957 341.6C425.886 341.572 425.811 341.559 425.735 341.561Z" fill="#C7D0E9"></path><path d="M324.09 312.556H415.579C415.603 312.555 415.627 312.559 415.649 312.567C415.672 312.575 415.692 312.588 415.71 312.604C415.727 312.62 415.741 312.639 415.751 312.661C415.761 312.683 415.766 312.706 415.767 312.73V329.507C415.765 329.555 415.744 329.6 415.709 329.633C415.674 329.665 415.627 329.682 415.579 329.681H324.09C324.042 329.682 323.996 329.665 323.96 329.633C323.925 329.6 323.904 329.555 323.902 329.507V312.73C323.904 312.682 323.925 312.637 323.96 312.604C323.996 312.572 324.042 312.554 324.09 312.556Z" fill="white"></path><path d="M415.766 320.193V312.73C415.765 312.706 415.76 312.683 415.75 312.661C415.74 312.639 415.726 312.62 415.708 312.604C415.691 312.588 415.67 312.575 415.648 312.567C415.626 312.559 415.602 312.555 415.578 312.556C415.682 312.556 415.766 312.591 415.766 312.634V320.193Z" fill="#D7DDE5"></path><path d="M323.902 312.729V312.633C323.902 312.589 323.988 312.556 324.09 312.556C324.042 312.554 323.995 312.571 323.96 312.604C323.925 312.636 323.904 312.682 323.902 312.729Z" fill="#DDE2E9"></path><path d="M415.579 320.272H324.09C323.986 320.272 323.902 320.236 323.902 320.194V312.731C323.904 312.683 323.925 312.638 323.96 312.605C323.996 312.572 324.042 312.555 324.09 312.557H415.579C415.603 312.556 415.627 312.559 415.649 312.567C415.672 312.576 415.692 312.588 415.71 312.604C415.727 312.621 415.741 312.64 415.751 312.662C415.761 312.683 415.766 312.707 415.767 312.731V320.194C415.767 320.232 415.683 320.272 415.579 320.272Z" fill="#DDE2E9"></path><path d="M368.781 325.167L373.973 320.611L379.166 325.167V316.184H368.79L368.781 325.167Z" fill="#0D346D"></path><path d="M418.016 310.997H321.72C321.692 310.996 321.664 311.001 321.637 311.011C321.611 311.021 321.587 311.036 321.567 311.055C321.546 311.074 321.53 311.097 321.518 311.123C321.507 311.149 321.501 311.176 321.5 311.204V312.556H406.768C409.094 312.504 411.346 313.374 413.034 314.976C414.722 316.578 415.708 318.782 415.778 321.108C415.709 323.438 414.722 325.646 413.032 327.251C411.342 328.856 409.086 329.728 406.755 329.676H321.492V331.239C321.493 331.267 321.499 331.294 321.511 331.32C321.522 331.346 321.539 331.369 321.559 331.388C321.58 331.407 321.604 331.422 321.63 331.432C321.656 331.442 321.684 331.447 321.712 331.446H418.016C420.801 331.516 423.499 330.478 425.519 328.56C427.538 326.641 428.713 323.999 428.785 321.215C428.71 318.433 427.533 315.794 425.514 313.879C423.495 311.963 420.799 310.927 418.016 310.997Z" fill="black"></path><path d="M415.772 293.005H330.102V311.222H415.772C418.252 311.284 420.654 310.36 422.453 308.652C424.251 306.944 425.298 304.592 425.363 302.113C425.297 299.634 424.25 297.282 422.452 295.575C420.654 293.867 418.252 292.943 415.772 293.005Z" fill="#0D3BFB"></path><path d="M330.105 293.005V311.222H351.519C353.998 311.284 356.4 310.359 358.198 308.652C359.997 306.944 361.043 304.592 361.109 302.113C361.043 299.634 359.996 297.282 358.198 295.575C356.4 293.867 353.998 292.943 351.519 293.005H330.105Z" fill="white"></path><path d="M330.105 293.005V311.222H351.519C353.998 311.284 356.4 310.359 358.198 308.652C359.997 306.944 361.043 304.592 361.109 302.113C361.043 299.634 359.996 297.282 358.198 295.575C356.4 293.867 353.998 292.943 351.519 293.005H330.105Z" fill="white"></path><path d="M361.102 302.011H330.102V293.001H352.005C354.384 293.06 356.651 294.026 358.342 295.7C360.033 297.375 361.02 299.633 361.102 302.011Z" fill="#DDE2E9"></path><path d="M328.119 309.401H353.164C355.095 309.467 356.981 308.807 358.449 307.549C359.916 306.292 360.859 304.53 361.09 302.611C361.134 301.588 360.968 300.566 360.601 299.61C360.234 298.653 359.674 297.783 358.956 297.052C358.237 296.322 357.377 295.747 356.427 295.363C355.477 294.98 354.458 294.796 353.434 294.823H328.119C327.996 294.826 327.873 294.805 327.758 294.76C327.644 294.716 327.538 294.649 327.449 294.564C327.36 294.479 327.289 294.377 327.239 294.264C327.19 294.151 327.163 294.03 327.16 293.907C327.163 293.783 327.189 293.662 327.239 293.549C327.288 293.436 327.36 293.334 327.449 293.249C327.538 293.164 327.643 293.097 327.758 293.053C327.873 293.008 327.996 292.987 328.119 292.99H353.107C355.523 292.907 357.881 293.735 359.714 295.31C361.548 296.884 362.722 299.09 363.005 301.49C363.061 302.77 362.854 304.047 362.395 305.242C361.936 306.438 361.236 307.526 360.339 308.439C359.441 309.353 358.365 310.071 357.177 310.55C355.989 311.029 354.716 311.258 353.436 311.223H328.119C327.996 311.226 327.873 311.204 327.758 311.16C327.644 311.115 327.538 311.049 327.449 310.964C327.36 310.879 327.289 310.777 327.239 310.664C327.19 310.551 327.163 310.43 327.16 310.306C327.168 310.059 327.273 309.825 327.453 309.656C327.632 309.486 327.872 309.394 328.119 309.401Z" fill="#0D3BFB"></path><path d="M269.57 157.267C269.664 156.401 269.958 155.568 270.428 154.835C270.981 154.085 271.761 153.533 272.652 153.261C273.764 152.93 274.922 152.776 276.082 152.803C277.282 152.833 278.482 152.742 279.664 152.53C280.656 152.34 281.58 151.892 282.343 151.23C282.603 150.998 282.804 150.708 282.932 150.383C283.059 150.059 283.109 149.709 283.077 149.362C283.068 149.112 282.988 148.87 282.845 148.664C282.798 148.678 282.88 148.929 282.882 149.373C282.876 149.68 282.804 149.982 282.669 150.258C282.534 150.533 282.34 150.776 282.102 150.969C281.362 151.541 280.492 151.922 279.57 152.078C278.413 152.256 277.243 152.331 276.073 152.302C274.86 152.274 273.651 152.451 272.496 152.824C271.528 153.147 270.696 153.785 270.134 154.637C269.768 155.208 269.55 155.862 269.5 156.538C269.459 156.783 269.483 157.034 269.57 157.267Z" fill="black"></path><path d="M272.399 160.155C272.657 160.095 272.905 160.001 273.138 159.877C273.439 159.726 273.769 159.641 274.106 159.629C274.442 159.617 274.777 159.677 275.088 159.805C275.278 159.911 275.438 160.065 275.551 160.251C275.664 160.437 275.726 160.649 275.733 160.866C275.754 161.416 275.708 161.965 275.595 162.504C275.443 163.177 275.542 163.883 275.875 164.489C276.092 164.798 276.379 165.052 276.712 165.23C277.046 165.408 277.417 165.505 277.794 165.513C278.166 165.517 278.535 165.444 278.878 165.3C279.221 165.156 279.531 164.943 279.789 164.675C280.275 164.199 280.608 163.589 280.745 162.922C280.899 161.845 280.894 160.752 280.73 159.677C280.641 158.949 280.431 158.241 280.108 157.583C279.853 157.125 279.615 156.942 279.6 156.96C279.584 156.978 279.752 157.207 279.932 157.667C280.173 158.329 280.323 159.02 280.378 159.721C280.485 160.757 280.455 161.803 280.291 162.832C280.176 163.418 279.871 163.949 279.423 164.343C278.974 164.737 278.408 164.972 277.813 165.011C277.514 165.006 277.221 164.931 276.956 164.794C276.691 164.656 276.462 164.459 276.286 164.218C276.014 163.71 275.932 163.122 276.055 162.558C276.162 161.982 276.192 161.393 276.145 160.808C276.122 160.529 276.028 160.26 275.87 160.028C275.713 159.796 275.498 159.609 275.247 159.484C274.891 159.347 274.507 159.294 274.126 159.331C273.746 159.368 273.379 159.493 273.056 159.697C272.598 159.949 272.384 160.124 272.399 160.155Z" fill="black"></path><path d="M279.587 164.291C279.561 164.291 279.49 164.555 279.648 165.009C279.772 165.326 279.969 165.61 280.222 165.839C280.475 166.067 280.778 166.234 281.106 166.325C281.602 166.442 282.12 166.427 282.608 166.282C283.097 166.137 283.539 165.866 283.89 165.497C284.729 164.596 285.186 163.405 285.167 162.174C285.183 160.961 284.817 159.773 284.121 158.78C283.55 157.977 282.776 157.342 281.877 156.939C281.283 156.667 280.644 156.508 279.991 156.471C279.753 156.435 279.51 156.456 279.281 156.533C280.126 156.66 280.948 156.904 281.725 157.26C282.535 157.676 283.229 158.288 283.742 159.041C284.359 159.966 284.681 161.056 284.667 162.168C284.685 163.272 284.292 164.343 283.565 165.174C283.27 165.497 282.898 165.74 282.484 165.881C282.07 166.022 281.627 166.056 281.196 165.98C280.907 165.913 280.635 165.784 280.399 165.603C280.163 165.422 279.969 165.192 279.829 164.929C279.634 164.546 279.632 164.288 279.59 164.291" fill="black"></path><path d="M271.237 151.096C271.116 151.154 271.596 152.068 272.706 152.557C273.816 153.046 274.81 152.801 274.772 152.673C274.76 152.528 273.87 152.537 272.911 152.097C271.952 151.658 271.354 151.007 271.231 151.096" fill="black"></path><path d="M275.179 99.2856C275.178 98.8556 275.007 98.4433 274.703 98.1393C274.399 97.8352 273.987 97.6642 273.557 97.6638C273.127 97.6638 272.714 97.8346 272.41 98.1387C272.105 98.4428 271.934 98.8553 271.934 99.2856C271.934 99.7159 272.105 100.128 272.41 100.432C272.714 100.737 273.127 100.907 273.557 100.907C273.987 100.907 274.399 100.736 274.703 100.432C275.007 100.128 275.178 99.7156 275.179 99.2856V99.2856Z" stroke="white" stroke-width="0.512567" stroke-miterlimit="10"></path><path d="M271.934 115.052V99.285" stroke="white" stroke-width="0.512567" stroke-miterlimit="10"></path><path fill-rule="evenodd" clip-rule="evenodd" d="M265.445 122.812C265.445 123.484 265.99 124.029 266.662 124.029H270.718C271.391 124.029 271.936 123.484 271.936 122.812C271.936 122.14 271.391 121.595 270.718 121.595H266.662C265.99 121.595 265.445 122.14 265.445 122.812Z" fill="#0D3BFB"></path><path d="M364.981 169.787C360.815 163.76 358.527 159.238 355.587 155.433C351.962 150.751 350.794 148.561 351.715 147.95C352.936 147.121 352.432 147.385 360.234 154.958C360.234 154.958 349.193 144.051 353.442 144.532C355.323 144.746 364.59 153.721 364.59 153.721C356.496 147.194 354.465 143.456 355.517 142.281C357.044 140.582 368.203 151.56 368.203 151.56C368.203 151.56 359.524 143.355 358.454 141.446C357.383 139.537 359.981 140.01 362.029 141.012C364.319 142.138 376.704 150.583 380.406 152.832C380.697 153.059 381.033 153.22 381.392 153.305C381.751 153.39 382.125 153.395 382.486 153.322C382.848 153.249 383.189 153.098 383.487 152.88C383.784 152.662 384.031 152.382 384.21 152.059C386.426 146.177 391.294 142.779 393.046 142.477C393.452 142.448 393.857 142.549 394.202 142.764C394.547 142.98 394.815 143.3 394.967 143.678C395.118 144.056 395.146 144.472 395.046 144.867C394.946 145.262 394.723 145.615 394.41 145.874C393.062 147.525 391.946 149.352 391.091 151.305C390.346 152.838 389.866 154.486 389.674 156.179C389.457 158.145 389.35 159.815 389.297 161.237L394.912 192.563L375.17 206.46L364.981 169.787Z" fill="#FFBD9D"></path><path d="M500.57 73.349C496.723 73.0481 492.855 73.5163 489.191 74.7263C485.528 75.9362 482.142 77.8638 479.231 80.3964C476.32 82.929 473.942 86.016 472.237 89.4773C470.532 92.9385 469.533 96.7047 469.299 100.556C468.487 114.051 467.749 128.655 467.84 136.003C468.035 151.786 483.821 154.242 483.821 154.242C483.821 154.242 481.561 181.661 481.796 186.09L523.562 188.006L527.351 103.63C527.69 96.0941 525.085 88.7217 520.087 83.0709C515.09 77.4202 508.091 73.934 500.57 73.349Z" fill="#FFBD9D"></path><path d="M483.792 154.015C491.08 154.152 498.243 152.116 504.37 148.168C504.37 148.168 499.505 159.525 483.754 158.105L483.792 154.015Z" fill="#0C0042"></path><path d="M525.893 109.054C526.162 108.938 536.735 105.847 536.393 116.638C536.051 127.429 525.287 124.857 525.277 124.547C525.268 124.237 525.888 109.054 525.888 109.054" fill="#FFBD9D"></path><path d="M526.897 109.123C527.14 110.848 527.114 112.599 526.818 114.315C526.655 115.186 526.3 116.009 525.778 116.724C525.257 117.44 524.581 118.029 523.802 118.449C520.833 119.869 517.108 117.693 515.78 114.784C514.451 111.875 514.818 108.543 515.123 105.377C515.697 101.072 515.628 96.705 514.92 92.4197C514.164 88.0557 511.86 84.1107 508.43 81.3084C506.655 79.9132 504.541 79.015 502.305 78.7059C500.068 78.3968 497.79 78.6878 495.703 79.5492C493.199 80.7297 491.314 82.8401 488.984 84.3031C486.879 85.6991 484.351 86.309 481.841 86.0257C480.613 85.879 479.45 85.3921 478.483 84.6199C477.516 83.8477 476.784 82.8209 476.37 81.6551C476.111 80.3514 476.236 79.0005 476.731 77.7669C477.226 76.5332 478.069 75.47 479.157 74.7067C481.405 73.1498 483.994 72.1549 486.707 71.8052C494.194 70.3249 501.943 70.9055 509.126 73.485C516.242 76.0018 522.085 81.2113 525.399 87.9926C528.834 95.7427 526.514 101.889 527.015 110.493" fill="#0C0042"></path><path d="M366.586 178.852L392.394 172.626L409.432 218.845L456.516 176.72C461.526 173.055 470.162 172.597 476.732 171.783L477.23 171.722C479.778 171.416 481.026 171.053 482.558 170.867C493.909 179.405 513.332 179.948 524.475 171.145C524.475 171.145 532.928 173.057 537.975 174.023C553.874 177.07 565.31 188.648 568.496 199.343L548.596 245.24L544.778 288.838L555.806 327.869C556.071 328.807 556.13 329.791 555.98 330.753C555.831 331.716 555.475 332.635 554.937 333.448C554.4 334.261 553.693 334.948 552.866 335.463C552.038 335.978 551.11 336.308 550.143 336.431L451.556 337.934L449.943 337.134C447.866 333.316 446.326 328.888 447.294 324.645C451.556 305.966 448.583 250.257 449.478 233.156C430.143 251.939 408.804 267.533 393.214 257.88C380.254 249.855 366.586 178.849 366.586 178.849" fill="#2CBCFA"></path><path d="M527.67 174.004L525.38 158.229L503.903 166.116L497.84 176.806L494.071 165.078L482.282 161.02L477.242 171.507L485.89 183.747L502.117 187.025L527.67 174.004Z" fill="#2CBCFA"></path><path d="M506.89 173.296L502.016 175.842L502.921 184.059L510.528 182.463L506.89 173.296Z" fill="#FF4F5B"></path><path d="M506.89 173.296L502.016 175.842L502.921 184.059L510.528 182.463L506.89 173.296Z" fill="#2CBCFA"></path><path d="M495.703 175.331L492.013 172.083L488.637 180.676L493.476 182.998L495.703 175.331Z" fill="#2CBCFA"></path><path d="M520.813 268.43L524.937 248.4C525.014 248.025 525.006 247.637 524.915 247.265C524.823 246.893 524.65 246.546 524.407 246.25C524.164 245.953 523.858 245.715 523.512 245.552C523.165 245.388 522.786 245.305 522.403 245.306L470.558 245.549C470.196 245.551 469.838 245.629 469.508 245.778C469.178 245.928 468.883 246.145 468.643 246.416C468.403 246.687 468.223 247.006 468.114 247.352C468.006 247.697 467.971 248.062 468.014 248.422L473.366 294.311C473.468 295.188 473.89 295.995 474.551 296.579C475.212 297.163 476.065 297.483 476.947 297.476L510.756 297.213C511.547 297.207 512.313 296.939 512.935 296.451C513.557 295.963 514 295.283 514.195 294.516L520.813 268.43Z" fill="white"></path><path d="M525.384 257.883C524.283 257.88 523.208 258.211 522.299 258.832C521.39 259.452 520.69 260.334 520.293 261.36C519.442 263.573 518.2 266.157 516.821 266.908C514.276 268.296 509.879 269.405 507.564 268.273C505.249 267.142 495.992 258.805 494.371 259.734C492.751 260.662 491.364 262.744 492.983 264.595C494.602 266.445 503.166 272 501.547 273.852C499.928 275.704 481.875 267.554 479.099 268.273C476.322 268.993 474.704 270.698 476.322 271.812C477.941 272.925 490.21 277.555 490.903 279.174C490.903 279.174 472.389 274.315 471.695 275.472C471.002 276.63 469.843 278.479 471.695 279.174C473.548 279.869 489.515 284.035 490.903 284.728C493.198 285.684 495.592 286.383 498.041 286.811C500.566 287.472 503.055 288.261 505.499 289.177C509.247 290.476 513.34 290.367 517.014 288.871L518.888 288.108C520.31 287.528 521.516 286.518 522.334 285.218C523.153 283.918 523.543 282.395 523.451 280.861L523.072 274.548L525.094 269.339L525.384 257.883Z" fill="#FFBD9D"></path><path d="M494.27 253.024C494.27 253.271 494.318 253.516 494.413 253.745C494.507 253.973 494.646 254.181 494.821 254.356C494.996 254.53 495.203 254.669 495.432 254.764C495.66 254.858 495.905 254.907 496.152 254.907C496.4 254.907 496.645 254.859 496.873 254.764C497.102 254.67 497.31 254.531 497.485 254.356C497.66 254.181 497.799 253.974 497.893 253.745C497.988 253.517 498.037 253.272 498.037 253.024C498.037 252.777 497.988 252.532 497.893 252.303C497.799 252.075 497.66 251.867 497.485 251.692C497.31 251.517 497.102 251.379 496.873 251.284C496.645 251.19 496.4 251.141 496.152 251.141C495.905 251.141 495.66 251.19 495.432 251.284C495.203 251.379 494.995 251.517 494.821 251.692C494.646 251.867 494.507 252.075 494.412 252.303C494.318 252.532 494.269 252.777 494.27 253.024Z" fill="#C6D1EA"></path><path d="M510.621 290.287C510.621 290.287 560.863 312.757 566.164 313.924C583.77 317.789 603.902 301.151 598.309 282.187C596.228 275.137 568.161 197.127 568.161 197.127L541.449 234.041L552.75 271.817L525.087 269.338L510.621 290.287Z" fill="#2CBCFA"></path><path d="M364.828 159.624C364.642 159.824 362.152 157.599 359.266 154.655C356.38 151.711 354.208 149.176 354.412 148.994C354.615 148.812 357.105 151.037 359.973 153.963C362.841 156.889 365.013 159.424 364.828 159.624Z" fill="black"></path><path d="M368.05 156.934C367.867 157.137 365.082 154.917 361.828 151.974C358.573 149.031 356.084 146.477 356.267 146.28C356.451 146.083 359.238 148.298 362.49 151.24C365.743 154.181 368.234 156.737 368.05 156.934Z" fill="black"></path><path d="M371.382 154.125C371.202 154.329 368.529 152.271 365.414 149.528C362.299 146.785 359.916 144.397 360.1 144.191C360.283 143.985 362.951 146.043 366.069 148.787C369.188 151.532 371.567 153.918 371.382 154.132" fill="black"></path><path d="M406.696 227.905C408.081 223.87 409.187 220.382 409.782 218.849C409.843 218.287 409.912 217.948 409.985 217.948C410.02 217.948 410.054 218.027 410.088 218.162C410.138 218.073 410.185 218.009 410.214 218.009C410.274 218.023 410.26 218.315 410.185 218.803C410.355 220.277 410.471 223.523 410.471 227.314C410.471 232.488 410.253 236.681 409.985 236.681C409.718 236.681 409.5 232.488 409.5 227.314C409.5 225.106 409.541 223.102 409.608 221.502C409.159 223.311 408.492 225.658 407.614 228.221C404.721 236.257 403.338 238.758 403.413 237.881C403.158 237.773 404.827 233.381 406.696 227.906" fill="black"></path><path d="M525.088 269.335C525.088 269.335 544.661 270.89 552.118 271.32C551.608 269.622 551.087 267.889 550.551 266.101C547.91 257.28 545.572 249.282 543.925 243.479C543.161 240.7 542.514 238.385 542.019 236.595C541.748 235.761 541.554 234.904 541.44 234.034C541.82 234.823 542.127 235.646 542.356 236.491C542.926 238.261 543.662 240.546 544.545 243.292C546.354 249.047 548.792 257.016 551.43 265.835L553.17 271.681L553.358 272.307L552.707 272.266C544.971 271.774 525.066 269.332 525.066 269.332" fill="black"></path><path d="M566.013 313.699C565.916 313.934 554.31 309.375 540.084 303.511C525.859 297.647 514.412 292.707 514.508 292.472C514.605 292.237 526.215 296.795 540.436 302.656C554.656 308.517 566.109 313.462 566.013 313.699Z" fill="black"></path><path d="M558.824 380.584L551.923 336.259L451.555 337.718L452.382 380.584H558.824Z" fill="#0C0042"></path></g></svg> 