<svg width="148" height="45" viewBox="0 0 148 45" fill="none" xmlns="http://www.w3.org/2000/svg">
<path d="M29.2609 7.34766L22.4256 22.6644L37.4553 15.7197L28.0508 16.7214L29.2609 7.34766Z" fill="#7AE8BC"/>
<path d="M7.34061 29.2676L22.6573 22.4322L15.7127 37.4619L16.7144 28.0575L7.34061 29.2676Z" fill="#7AE8BC"/>
<path d="M37.7347 29.168L22.4211 22.3397L29.3589 37.3662L28.3615 27.9622L37.7347 29.168Z" fill="#7AE8BC"/>
<path d="M15.8245 7.25781L22.6528 22.5714L7.62631 15.6336L17.0303 16.631L15.8245 7.25781Z" fill="#7AE8BC"/>
<path d="M28.6466 37.9766L22.4944 22.3788L16.929 37.9715L22.7995 30.5542L28.6466 37.9766Z" fill="#01EC8D"/>
<path d="M28.342 6.98633L22.4976 22.7075L16.6269 7.2325L22.642 14.5275L28.342 6.98633Z" fill="#01EC8D"/>
<path d="M6.95505 28.4102L22.6144 22.4021L7.079 16.6932L14.4364 22.6318L6.95505 28.4102Z" fill="#01EC8D"/>
<path d="M37.948 28.3906L22.2869 22.4015L37.8206 16.6738L30.4649 22.6213L37.948 28.3906Z" fill="#01EC8D"/>
<path d="M30.0243 14.8891C30.7319 15.5967 31.8779 15.5979 32.584 14.8918C33.2902 14.1857 33.289 13.0396 32.5814 12.332C31.8738 11.6244 30.7277 11.6232 30.0216 12.3293C29.3155 13.0355 29.3167 14.1815 30.0243 14.8891Z" fill="#7AE8BC"/>
<path d="M12.5844 32.3305C13.292 33.0381 14.438 33.0393 15.1442 32.3332C15.8503 31.6271 15.8491 30.481 15.1415 29.7734C14.4339 29.0658 13.2878 29.0646 12.5817 29.7707C11.8756 30.4769 11.8768 31.6229 12.5844 32.3305Z" fill="#7AE8BC"/>
<path d="M30.6061 32.8989C31.3137 33.6065 32.4598 33.6077 33.1659 32.9016C33.872 32.1954 33.8708 31.0494 33.1632 30.3418C32.4556 29.6342 31.3096 29.633 30.6034 30.3391C29.8973 31.0452 29.8985 32.1913 30.6061 32.8989Z" fill="#7AE8BC"/>
<path d="M12.043 14.3364C12.7506 15.044 13.8967 15.0452 14.6028 14.3391C15.3089 13.6329 15.3077 12.4869 14.6001 11.7793C13.8925 11.0717 12.7465 11.0705 12.0403 11.7766C11.3342 12.4827 11.3354 13.6288 12.043 14.3364Z" fill="#7AE8BC"/>
<path d="M34.004 24.1391C34.7116 24.8467 35.8577 24.8479 36.5638 24.1418C37.2699 23.4357 37.2687 22.2896 36.5611 21.582C35.8535 20.8744 34.7075 20.8732 34.0014 21.5793C33.2952 22.2855 33.2964 23.4315 34.004 24.1391Z" fill="#01EC8D"/>
<path d="M8.48798 23.3149C9.19559 24.0225 10.3416 24.0237 11.0478 23.3176C11.7539 22.6114 11.7527 21.4654 11.0451 20.7578C10.3375 20.0502 9.19143 20.049 8.48531 20.7551C7.77918 21.4612 7.78038 22.6073 8.48798 23.3149Z" fill="#01EC8D"/>
<path d="M21.094 10.9477C21.8016 11.6553 22.9477 11.6565 23.6538 10.9504C24.3599 10.2443 24.3587 9.0982 23.6511 8.3906C22.9435 7.683 21.7975 7.6818 21.0914 8.38792C20.3852 9.09405 20.3864 10.2401 21.094 10.9477Z" fill="#01EC8D"/>
<path d="M21.4819 36.4223C22.1896 37.1299 23.3356 37.1311 24.0417 36.425C24.7479 35.7189 24.7466 34.5728 24.039 33.8652C23.3314 33.1576 22.1854 33.1564 21.4793 33.8625C20.7731 34.5687 20.7743 35.7147 21.4819 36.4223Z" fill="#01EC8D"/>
<path d="M56.4679 17.5215C56.3499 16.9725 56.1591 16.4416 55.9005 15.943C55.6287 15.5266 55.2918 15.1565 54.9024 14.847C54.5077 14.5407 54.0553 14.317 53.5721 14.1893C52.5149 13.9118 51.4059 13.8967 50.3415 14.1452C49.8496 14.2669 49.3831 14.4748 48.9639 14.7594C48.5785 15.0417 48.2551 15.3999 48.0138 15.812C47.773 16.3022 47.6588 16.8449 47.6815 17.3905C47.6715 17.8918 47.8212 18.3832 48.109 18.7939C48.4222 19.1987 48.8091 19.5407 49.2495 19.8018C49.7661 20.095 50.3064 20.3443 50.8648 20.547C51.4827 20.7662 52.0999 20.9879 52.7651 21.2046C53.4775 21.4679 54.2379 21.7305 54.9504 22.0379C55.6426 22.3214 56.297 22.6896 56.8986 23.134C57.462 23.5417 57.9317 24.0651 58.2762 24.669C58.6569 25.3507 58.838 26.1256 58.7989 26.9052C58.8189 27.607 58.7062 28.3063 58.4666 28.9663C58.2445 29.5418 57.9046 30.0647 57.4685 30.5013C57.0492 30.9541 56.5499 31.3256 55.9957 31.5974C55.4175 31.8995 54.8131 32.1489 54.19 32.3425C53.5339 32.5163 52.8674 32.6482 52.1945 32.7375C51.517 32.8235 50.8347 32.8675 50.1517 32.8691C49.3423 32.869 48.5335 32.8251 47.7288 32.7375C46.9147 32.6486 46.1059 32.5168 45.3058 32.3425L45.0208 32.2109C44.9736 32.1233 44.9256 32.0792 44.9256 31.9917C44.8784 31.7725 44.8783 31.4248 44.8304 30.9391C44.7902 30.4724 44.7744 30.004 44.7831 29.5357C44.7831 29.0532 44.7359 28.6589 44.7359 28.2639V27.6063L45.6387 27.5187C45.7142 28.1343 45.9068 28.7297 46.2062 29.273C46.4984 29.7558 46.8866 30.1736 47.3467 30.5007C47.8248 30.8236 48.3553 31.061 48.9147 31.2024C49.5381 31.3456 50.1754 31.4191 50.815 31.4216C51.4057 31.4309 51.9956 31.3721 52.5728 31.2465C53.1092 31.1245 53.6224 30.9171 54.0929 30.6323C54.5196 30.3504 54.877 29.9757 55.1383 29.5363C55.4167 29.0426 55.5479 28.4795 55.5165 27.9137C55.5265 27.4261 55.3764 26.9486 55.0891 26.5543C54.7738 26.1631 54.3867 25.8355 53.9485 25.5893C53.432 25.2961 52.8916 25.0469 52.3332 24.8442C51.7153 24.625 51.0981 24.4032 50.4802 24.1424C49.7678 23.8791 49.0074 23.5755 48.295 23.2656C47.6027 22.9821 46.9483 22.614 46.3468 22.1696C45.7817 21.7459 45.3123 21.208 44.9691 20.591C44.5884 19.8934 44.4075 19.1044 44.4465 18.3108C44.4129 17.3406 44.6603 16.3813 45.1589 15.548C45.6338 14.8175 46.2671 14.2031 47.0119 13.7503C47.8143 13.303 48.679 12.9778 49.5774 12.7853C50.5479 12.594 51.5338 12.4914 52.523 12.4785C53.2535 12.4828 53.9832 12.5268 54.7089 12.6102C55.4614 12.691 56.2075 12.8229 56.9421 13.0051L57.227 13.1368C57.2743 13.2243 57.3223 13.2684 57.3223 13.356C57.3695 13.5752 57.3695 13.9229 57.4175 14.321C57.4647 14.7619 57.4647 15.1543 57.5127 15.5928C57.5504 15.9863 57.5662 16.3817 57.5599 16.777V17.3918L56.4679 17.5215Z" fill="white"/>
<path d="M57.4653 10.5131C58.545 10.2198 59.6393 9.9835 60.7438 9.80508C61.5988 9.67217 62.1215 9.58398 62.3119 9.58398C62.6902 9.58398 62.8793 9.80508 62.8793 10.2032V25.5098L67.8683 20.5109C68.0108 20.378 68.106 20.3339 68.2012 20.2457C68.3391 20.1878 68.4823 20.1433 68.6287 20.1128C68.9089 20.0327 69.1947 19.9735 69.4837 19.9358C69.8159 19.8917 70.1015 19.8476 70.3865 19.8029C70.6715 19.7582 70.9539 19.7588 71.1942 19.7147C71.4319 19.7147 71.5725 19.6706 71.7168 19.6706C71.906 19.6706 72.0497 19.7588 72.0497 19.9358C72.0286 20.0235 71.9784 20.1014 71.9073 20.1569L65.8256 24.6255L72.4772 31.8807C72.5212 31.9485 72.5534 32.0233 72.5724 32.1018C72.5686 32.1663 72.5431 32.2277 72.4999 32.2758C72.4567 32.324 72.3985 32.3561 72.3347 32.367C72.1456 32.4111 71.9072 32.4111 71.6223 32.4552C71.3373 32.4993 71.0548 32.4993 70.7673 32.5434C70.4824 32.5434 70.2447 32.5874 70.007 32.5874H69.4843C69.3382 32.5794 69.1941 32.5497 69.0568 32.4993C68.9187 32.4115 68.7917 32.3074 68.6785 32.1893L62.8818 25.8632V31.9242C62.8861 31.9842 62.8784 32.0446 62.8592 32.1017C62.84 32.1588 62.8096 32.2115 62.7698 32.2568C62.7301 32.3021 62.6817 32.339 62.6276 32.3655C62.5734 32.392 62.5145 32.4075 62.4543 32.4111C62.2652 32.4552 62.0269 32.4552 61.7892 32.4993C61.5515 32.5434 61.3138 32.5434 61.124 32.5874C60.8863 32.5874 60.6965 32.6315 60.5061 32.6315H60.0787C59.7937 32.6315 59.6512 32.4986 59.6512 32.1906V12.8595C59.7038 12.4191 59.5845 11.9754 59.3183 11.6205C59.1839 11.5006 59.0253 11.4109 58.8532 11.3575C58.6812 11.304 58.4996 11.288 58.3209 11.3105C58.0666 11.3045 57.8123 11.3192 57.5605 11.3546L57.4653 10.5131Z" fill="white"/>
<path d="M72.6696 20.7805C73.3348 20.6054 73.9527 20.4744 74.4753 20.3433C75.0428 20.2123 75.5207 20.1248 75.9482 20.0372C76.3756 19.9497 76.7085 19.9062 76.9935 19.8621C77.1662 19.8327 77.341 19.8181 77.5162 19.8186C77.8945 19.8186 78.0836 20.0372 78.0836 20.4309V31.8863C78.0875 31.9461 78.0796 32.006 78.0602 32.0626C78.0407 32.1192 78.0102 32.1714 77.9705 32.2162C77.9307 32.2609 77.8825 32.2974 77.8285 32.3234C77.7745 32.3493 77.716 32.3644 77.6561 32.3676C77.467 32.411 77.2287 32.411 76.991 32.4551C76.7533 32.4992 76.5156 32.4986 76.3258 32.5427C76.0881 32.5427 75.8983 32.5862 75.7079 32.5862H75.2805C74.9955 32.5862 74.853 32.4551 74.853 32.149V23.0538C74.8827 22.8379 74.8685 22.6182 74.8115 22.4078C74.7544 22.1974 74.6555 22.0007 74.5207 21.8293C74.3929 21.7142 74.2422 21.6274 74.0785 21.5746C73.9147 21.5219 73.7416 21.5043 73.5706 21.5232H73.1923C73.0498 21.5232 72.9073 21.5666 72.7169 21.5666L72.6696 20.7805ZM78.2759 14.6591C78.2963 14.9032 78.2597 15.1487 78.169 15.3763C78.0783 15.6038 77.936 15.8073 77.7532 15.9706C77.3031 16.2639 76.7692 16.4021 76.2331 16.3642C76.0081 16.3815 75.782 16.3515 75.5693 16.2762C75.3566 16.2009 75.162 16.082 74.998 15.9271C74.8466 15.7543 74.7309 15.5534 74.6575 15.3357C74.5842 15.1181 74.5546 14.8882 74.5705 14.6591C74.5502 14.415 74.5868 14.1695 74.6775 13.9419C74.7681 13.7144 74.9105 13.5109 75.0932 13.3476C75.5462 13.0606 76.0779 12.9229 76.6133 12.9539C76.8383 12.9367 77.0645 12.9667 77.2772 13.042C77.4899 13.1173 77.6845 13.2362 77.8485 13.3911C77.9999 13.5639 78.1156 13.7648 78.1889 13.9824C78.2623 14.2001 78.2918 14.43 78.2759 14.6591Z" fill="white"/>
<path d="M78.5613 10.5131C79.6409 10.2198 80.7353 9.98351 81.8398 9.80508C82.6947 9.67217 83.2174 9.58398 83.3605 9.58398C83.7388 9.58398 83.9279 9.80508 83.9279 10.2032V31.9254C83.9322 31.9855 83.9245 32.0458 83.9053 32.1029C83.8861 32.16 83.8557 32.2128 83.8159 32.258C83.7762 32.3033 83.7278 32.3403 83.6737 32.3668C83.6195 32.3933 83.5606 32.4087 83.5005 32.4123C83.3113 32.4564 83.073 32.4564 82.8353 32.5005C82.5976 32.5446 82.3599 32.5446 82.1702 32.5887C81.9325 32.5887 81.7427 32.6328 81.5523 32.6328H81.1248C80.8398 32.6328 80.6973 32.4999 80.6973 32.1919V12.8595C80.75 12.4192 80.631 11.9755 80.3651 11.6205C80.2306 11.5005 80.0719 11.4108 79.8997 11.3573C79.7275 11.3039 79.5459 11.2879 79.367 11.3106C79.1128 11.3045 78.8585 11.3192 78.6067 11.3546L78.5613 10.5131Z" fill="white"/>
<path d="M85.1178 10.5131C86.1975 10.2198 87.2919 9.98351 88.3964 9.80508C89.2513 9.67217 89.774 9.58398 89.9165 9.58398C90.2948 9.58398 90.484 9.80508 90.484 10.2032V31.9254C90.4882 31.9855 90.4805 32.0458 90.4613 32.1029C90.4421 32.16 90.4117 32.2128 90.372 32.258C90.3322 32.3033 90.2838 32.3403 90.2297 32.3668C90.1755 32.3933 90.1167 32.4087 90.0565 32.4123C89.8673 32.4564 89.629 32.4564 89.3913 32.5005C89.1536 32.5446 88.9159 32.5446 88.7261 32.5887C88.4884 32.5887 88.2987 32.6328 88.1083 32.6328H87.6808C87.3958 32.6328 87.2533 32.4999 87.2533 32.1919V12.8595C87.3058 12.4191 87.1866 11.9754 86.9204 11.6205C86.7859 11.5005 86.6272 11.4108 86.455 11.3573C86.2829 11.3039 86.1012 11.2879 85.9223 11.3106C85.6681 11.3045 85.4138 11.3192 85.162 11.3546L85.1178 10.5131Z" fill="white"/>
<path d="M91.8646 23.1381C91.8619 22.8841 91.8777 22.6302 91.9119 22.3784C91.9119 22.0005 91.9592 21.6188 91.9592 21.2389C92.0065 20.8119 92.0065 20.432 92.0544 20.0522C92.1023 19.6724 92.1017 19.3876 92.1496 19.1502C92.1969 19.0551 92.2448 19.0078 92.3388 19.0078C93.1464 19.0078 93.8116 19.0078 94.3342 19.0551H101.841C102.364 19.0551 102.981 19.0551 103.789 19.0078C103.884 19.0078 103.932 19.0551 103.932 19.1029C103.979 19.2453 104.027 19.3876 104.074 19.5779C104.108 19.701 104.124 19.8282 104.121 19.9558C104.121 19.9086 104.121 19.9558 104.074 20.0982L95.7119 31.0163H100.368C100.792 31.0301 101.214 30.949 101.603 30.7788C101.927 30.6567 102.208 30.442 102.411 30.1615C102.623 29.8673 102.798 29.5486 102.933 29.2123C103.076 28.8343 103.218 28.4053 103.361 27.9783L104.264 28.0734C104.267 28.3431 104.251 28.6127 104.217 28.8803C104.217 29.2582 104.169 29.64 104.169 30.1143C104.122 30.5414 104.122 30.9691 104.074 31.3961C104.026 31.8232 104.027 32.1079 103.979 32.3454C103.932 32.4405 103.884 32.4878 103.79 32.4878C102.982 32.4878 102.317 32.4878 101.794 32.4405H93.9553C93.4326 32.4405 92.7675 32.4405 91.9598 32.4878C91.9123 32.4878 91.8648 32.4403 91.8173 32.3454C91.77 32.203 91.7221 32.0128 91.6748 31.8232C91.6434 31.6997 91.6275 31.5727 91.6276 31.4453C91.6243 31.4195 91.6269 31.3934 91.6351 31.3688C91.6433 31.3441 91.6569 31.3216 91.6748 31.3029L99.8472 20.4799H95.6179C95.213 20.4571 94.8079 20.5215 94.4301 20.6689C94.1517 20.8036 93.8953 20.9796 93.6697 21.1911C93.4464 21.4529 93.284 21.7609 93.1943 22.0931C93.0518 22.4257 92.9566 22.8527 92.816 23.2798L91.8646 23.1381Z" fill="white"/>
<path d="M114.006 22.7122C114.015 22.3951 114 22.0777 113.959 21.763C113.914 21.4936 113.818 21.2356 113.674 21.0033C113.523 20.7844 113.307 20.6183 113.056 20.5284C112.689 20.4034 112.304 20.3396 111.916 20.3394C111.327 20.3161 110.742 20.43 110.205 20.672C109.759 20.8783 109.368 21.1875 109.065 21.574C108.755 21.9795 108.544 22.4507 108.447 22.951C108.311 23.4942 108.247 24.0529 108.258 24.6127C108.244 25.3851 108.357 26.1545 108.59 26.891C108.806 27.564 109.145 28.1915 109.588 28.7423C110.035 29.281 110.606 29.7042 111.251 29.9763C112.018 30.2977 112.842 30.4593 113.674 30.4512C113.944 30.4578 114.214 30.442 114.482 30.404C114.767 30.3568 115.1 30.3089 115.385 30.2616C115.717 30.2144 116.002 30.1193 116.287 30.0727C116.572 29.9776 116.855 29.9303 117.142 29.8352L117.57 30.8323C117.002 31.0698 116.382 31.3073 115.764 31.5441C115.161 31.7762 114.541 31.9657 113.911 32.111C113.344 32.2534 112.771 32.3958 112.248 32.489C111.841 32.5704 111.428 32.618 111.013 32.6313C110.131 32.6375 109.257 32.4596 108.447 32.1092C107.714 31.7561 107.065 31.2522 106.541 30.6304C106.016 30.0087 105.63 29.2832 105.406 28.5017C105.135 27.6914 105.007 26.8401 105.028 25.9859C105.003 24.9396 105.214 23.9012 105.646 22.9478C106.05 22.0506 106.651 21.2556 107.404 20.6216C108.176 19.9613 109.061 19.4465 110.017 19.1023C111.043 18.7561 112.118 18.5797 113.201 18.5801C113.664 18.5804 114.125 18.6281 114.579 18.7224C115.008 18.807 115.424 18.9507 115.814 19.1495C116.177 19.3394 116.488 19.6167 116.717 19.9564C116.96 20.3381 117.076 20.7867 117.049 21.2383C117.073 21.5014 117.029 21.7663 116.921 22.0074C116.813 22.2485 116.644 22.4577 116.431 22.6146C115.963 22.9108 115.417 23.0596 114.863 23.0417C114.593 23.0496 114.323 23.0338 114.055 22.9944V22.7097L114.006 22.7122Z" fill="white"/>
<path d="M117.95 20.1484C118.568 19.911 119.185 19.6735 119.803 19.4839C120.421 19.2943 120.991 19.1513 121.513 19.0089C121.996 18.8772 122.489 18.782 122.986 18.7242C123.413 18.677 123.794 18.6291 124.079 18.6291C124.817 18.611 125.555 18.707 126.264 18.9138C126.821 19.0865 127.316 19.4161 127.689 19.8631C128.082 20.3422 128.344 20.9146 128.45 21.5248C128.614 22.3211 128.693 23.1325 128.687 23.9455L128.592 29.8792C128.575 30.2301 128.607 30.5817 128.687 30.9236C128.735 31.2562 128.83 31.5881 128.877 31.8728V32.0152C128.877 32.2042 128.734 32.2999 128.498 32.3478C128.356 32.395 128.165 32.395 127.976 32.4429C127.786 32.4908 127.597 32.4901 127.358 32.538C127.169 32.538 126.93 32.5853 126.74 32.5853H126.22C126.116 32.5916 126.014 32.5575 125.935 32.4901C125.879 32.3832 125.831 32.272 125.792 32.1575L125.555 31.3034L124.129 31.8703C123.654 32.0593 123.179 32.2029 122.751 32.3453C122.365 32.4743 121.967 32.5695 121.564 32.63C121.268 32.7017 120.965 32.7337 120.661 32.7251C120.088 32.7487 119.517 32.6347 118.998 32.3925C118.551 32.1862 118.16 31.877 117.857 31.4905C117.572 31.1335 117.348 30.7327 117.192 30.3037C117.049 29.9073 116.969 29.491 116.954 29.0698C116.94 28.4627 117.069 27.861 117.332 27.3136C117.57 26.847 117.911 26.441 118.331 26.1269C118.736 25.8243 119.184 25.5843 119.661 25.4151C120.199 25.217 120.757 25.0739 121.324 24.988C121.942 24.8929 122.607 24.799 123.272 24.7505C123.985 24.7033 124.698 24.6554 125.505 24.6554V24.0381C125.524 23.5297 125.492 23.0208 125.41 22.5188C125.326 22.1196 125.182 21.7355 124.983 21.3793C124.765 21.0712 124.47 20.8257 124.128 20.6675C123.704 20.5029 123.252 20.4223 122.798 20.43C122.11 20.4414 121.426 20.521 120.755 20.6675C119.936 20.8467 119.127 21.0685 118.332 21.332L117.95 20.1484ZM125.457 25.8925C124.889 25.9398 124.364 25.9398 123.842 25.9876C123.366 26.0349 122.891 26.0828 122.464 26.13C122.087 26.1682 121.719 26.2642 121.371 26.4147C121.077 26.5202 120.815 26.7001 120.611 26.9369C120.458 27.1247 120.33 27.3324 120.233 27.5542C120.131 27.8275 120.083 28.1176 120.09 28.409C120.099 28.6646 120.13 28.9189 120.185 29.1687C120.28 29.4458 120.425 29.7032 120.613 29.9283C120.832 30.1798 121.109 30.3743 121.421 30.4952C121.828 30.6602 122.264 30.741 122.704 30.7327C122.816 30.7373 122.929 30.7213 123.036 30.6855C123.178 30.6382 123.414 30.6382 123.654 30.5903C123.927 30.5267 124.197 30.4474 124.461 30.3529C124.746 30.2578 125.029 30.1154 125.364 29.9749L125.457 25.8925Z" fill="white"/>
<path d="M139.9 10.8225C139.653 10.5251 139.345 10.2837 138.997 10.1145C138.605 9.92839 138.189 9.79455 137.762 9.71641C137.34 9.62844 136.91 9.5839 136.479 9.5835C135.584 9.56448 134.694 9.73024 133.866 10.0704C133.065 10.3808 132.325 10.8301 131.68 11.3976C131.326 11.7325 131.007 12.1032 130.73 12.5037C130.429 12.925 130.189 13.3867 130.017 13.875C129.82 14.4538 129.661 15.0449 129.542 15.6444C129.443 16.3776 129.395 17.1168 129.399 17.8567V32.1908C129.393 32.2491 129.399 32.3082 129.418 32.3638C129.437 32.4194 129.468 32.4701 129.509 32.5123C129.549 32.5545 129.599 32.5871 129.654 32.6077C129.709 32.6284 129.768 32.6365 129.827 32.6317H130.254C130.461 32.6374 130.668 32.6227 130.872 32.5876C131.096 32.58 131.319 32.5505 131.537 32.4994C131.775 32.4553 132.013 32.4553 132.202 32.4112C132.263 32.4076 132.322 32.3921 132.376 32.3656C132.43 32.3392 132.478 32.3022 132.518 32.2569C132.558 32.2116 132.588 32.1589 132.607 32.1018C132.627 32.0447 132.634 31.9844 132.63 31.9243V21.4843H136.763L136.859 20.4223C136.856 20.3123 136.823 20.2051 136.763 20.1123C136.676 20.0631 136.579 20.033 136.478 20.0242C136.1 20.0242 135.576 20.0242 134.91 20.0683C134.245 20.0683 133.485 20.1123 132.677 20.1564V15.8655C132.677 15.2463 132.724 14.6265 132.772 14.0514C132.808 13.5256 132.953 13.0131 133.2 12.5472C133.396 12.1161 133.709 11.7483 134.103 11.4852C134.557 11.2014 135.087 11.0626 135.623 11.0871C135.949 11.0676 136.276 11.1284 136.573 11.2641C136.798 11.3583 136.994 11.5105 137.14 11.705C137.275 11.9026 137.357 12.1311 137.378 12.3689C137.419 12.6471 137.435 12.9283 137.425 13.2092V13.5632C137.677 13.5986 137.932 13.6134 138.186 13.6073C138.473 13.5998 138.758 13.5704 139.041 13.5191C139.278 13.4636 139.501 13.3605 139.697 13.216C139.893 13.0716 140.058 12.8888 140.181 12.6789C140.299 12.4294 140.363 12.1583 140.37 11.8827C140.279 11.5037 140.12 11.1445 139.9 10.8225Z" fill="white"/>
<path d="M147.692 30.8291C147.09 31.1191 146.472 31.3728 145.839 31.5888C145.174 31.8262 144.556 32.0158 143.939 32.2061C143.377 32.3672 142.806 32.4934 142.229 32.584C141.79 32.671 141.345 32.7187 140.898 32.7264C139.995 32.7464 139.099 32.5521 138.285 32.1595C137.556 31.8059 136.909 31.3048 136.385 30.688C135.861 30.0548 135.458 29.3308 135.197 28.552C134.929 27.7572 134.801 26.9219 134.819 26.0834C134.798 25.0376 135.009 24.0002 135.436 23.0454C135.823 22.1629 136.389 21.3706 137.1 20.7191C137.819 20.0609 138.658 19.5453 139.57 19.1998C140.525 18.835 141.542 18.6577 142.564 18.6776C143.198 18.6597 143.829 18.773 144.417 19.0102C144.916 19.1981 145.369 19.4892 145.747 19.8644C146.113 20.2503 146.403 20.7011 146.602 21.1935C146.797 21.742 146.893 22.3205 146.887 22.9024C146.871 23.5793 146.759 24.2504 146.554 24.896L138.002 25.371C138.03 26.0905 138.192 26.7986 138.477 27.4597C138.711 28.0752 139.085 28.6278 139.57 29.0736C140.064 29.5446 140.645 29.9153 141.28 30.1652C142.029 30.4252 142.817 30.5531 143.609 30.5431C144.231 30.5461 144.853 30.4827 145.462 30.3541C146.059 30.2216 146.647 30.0471 147.22 29.832L147.692 30.8291ZM143.653 23.851C143.701 23.662 143.701 23.5184 143.749 23.3761V22.9011C143.751 22.5792 143.703 22.2588 143.606 21.9519C143.512 21.6601 143.367 21.3871 143.179 21.1449C142.984 20.9196 142.74 20.7411 142.466 20.6228C142.153 20.4831 141.811 20.4184 141.468 20.4338C140.942 20.4146 140.419 20.529 139.948 20.7664C139.531 20.9545 139.17 21.2494 138.903 21.6212C138.613 21.9853 138.403 22.4055 138.285 22.8551C138.156 23.3363 138.076 23.8293 138.047 24.3266L143.653 23.851Z" fill="white"/>
</svg>
