<svg xmlns="http://www.w3.org/2000/svg" xmlns:xlink="http://www.w3.org/1999/xlink" width="213.559" height="70.678" viewBox="0 0 213.559 70.678">
  <defs>
    <clipPath id="clip-path">
      <path id="Path_75900" data-name="Path 75900" d="M994.24,315.784l.023-.005,4.9-1.166c.721-2.848,1.6-5.642,3.37-7.408a5.591,5.591,0,0,1,3.37-1.856,2.3,2.3,0,0,1,2.363,1.427,7.709,7.709,0,0,0-2.49-5.94c-.18.015-.36.034-.54.061a11.333,11.333,0,0,0-5.894,3.118c-2.9,2.9-3.875,6.9-4.848,10.724C994.4,315.081,994.312,315.423,994.24,315.784Z" transform="translate(-994.24 -300.835)" fill="aqua"/>
    </clipPath>
    <linearGradient id="linear-gradient" x1="0.736" y1="0.803" x2="0.228" y2="0.347" gradientUnits="objectBoundingBox">
      <stop offset="0" stop-color="#04a795" stop-opacity="0"/>
      <stop offset="1" stop-color="#04a795"/>
    </linearGradient>
    <clipPath id="clip-path-2">
      <path id="Path_75901" data-name="Path 75901" d="M1021.74,389.694l.02.013,4.288,2.639c2.523-1.5,5.123-2.855,7.621-2.855a5.592,5.592,0,0,1,3.7,1.071,2.3,2.3,0,0,1,.662,2.68,7.71,7.71,0,0,0,2.44-5.961c-.138-.117-.279-.23-.425-.338a11.334,11.334,0,0,0-6.373-1.963c-4.1,0-7.621,2.141-11.011,4.155C1022.352,389.312,1022.046,389.49,1021.74,389.694Z" transform="translate(-1021.74 -384.979)" fill="aqua"/>
    </clipPath>
    <clipPath id="clip-path-3">
      <path id="Path_75902" data-name="Path 75902" d="M1013.076,452.989l.005.023,1.166,4.9c2.848.721,5.641,1.6,7.408,3.37a5.592,5.592,0,0,1,1.856,3.37,2.3,2.3,0,0,1-1.427,2.363,7.709,7.709,0,0,0,5.94-2.49c-.015-.18-.034-.36-.061-.54a11.335,11.335,0,0,0-3.118-5.894c-2.9-2.9-6.9-3.875-10.724-4.848C1013.778,453.151,1013.436,453.061,1013.076,452.989Z" transform="translate(-1013.076 -452.989)" fill="aqua"/>
    </clipPath>
    <clipPath id="clip-path-4">
      <path id="Path_75905" data-name="Path 75905" d="M961.482,480.49l-.013.02-2.639,4.287c1.5,2.523,2.855,5.123,2.855,7.621a5.593,5.593,0,0,1-1.071,3.7,2.3,2.3,0,0,1-2.68.662,7.708,7.708,0,0,0,5.96,2.44c.117-.138.23-.279.339-.425a11.333,11.333,0,0,0,1.963-6.373c0-4.1-2.141-7.621-4.155-11.011C961.864,481.1,961.686,480.8,961.482,480.49Z" transform="translate(-957.936 -480.49)" fill="aqua"/>
    </clipPath>
    <clipPath id="clip-path-5">
      <path id="Path_75915" data-name="Path 75915" d="M878.907,471.826l-.023,0-4.9,1.166c-.721,2.848-1.6,5.642-3.37,7.408a5.594,5.594,0,0,1-3.37,1.856,2.3,2.3,0,0,1-2.363-1.427,7.709,7.709,0,0,0,2.49,5.94c.18-.015.36-.034.54-.061a11.336,11.336,0,0,0,5.894-3.118c2.9-2.9,3.875-6.9,4.848-10.724C878.744,472.529,878.835,472.186,878.907,471.826Z" transform="translate(-864.868 -471.826)" fill="aqua"/>
    </clipPath>
    <clipPath id="clip-path-6">
      <path id="Path_75918" data-name="Path 75918" d="M835.74,420.233l-.02-.013-4.288-2.638c-2.523,1.5-5.123,2.855-7.621,2.855a5.594,5.594,0,0,1-3.7-1.071,2.3,2.3,0,0,1-.662-2.68,7.709,7.709,0,0,0-2.44,5.961c.138.116.279.23.425.338a11.335,11.335,0,0,0,6.372,1.963c4.1,0,7.621-2.141,11.011-4.155C835.129,420.615,835.434,420.437,835.74,420.233Z" transform="translate(-817.008 -416.687)" fill="aqua"/>
    </clipPath>
    <clipPath id="clip-path-7">
      <path id="Path_75917" data-name="Path 75917" d="M857.034,337.655l0-.023-1.166-4.9c-2.848-.721-5.641-1.6-7.408-3.37a5.594,5.594,0,0,1-1.856-3.37,2.3,2.3,0,0,1,1.427-2.363,7.71,7.71,0,0,0-5.94,2.49c.015.18.034.36.061.54a11.334,11.334,0,0,0,3.118,5.894c2.9,2.9,6.9,3.875,10.724,4.848C856.331,337.493,856.674,337.583,857.034,337.655Z" transform="translate(-842.086 -323.616)" fill="aqua"/>
    </clipPath>
    <clipPath id="clip-path-8">
      <path id="Path_75909" data-name="Path 75909" d="M930.942,294.491l.013-.02,2.639-4.287c-1.5-2.523-2.855-5.123-2.855-7.621a5.592,5.592,0,0,1,1.071-3.7,2.3,2.3,0,0,1,2.68-.662,7.708,7.708,0,0,0-5.961-2.44c-.117.138-.23.278-.338.425a11.334,11.334,0,0,0-1.963,6.372c0,4.1,2.141,7.621,4.155,11.011C930.56,293.88,930.738,294.185,930.942,294.491Z" transform="translate(-11959.673 6597.614)" fill="rgba(255,255,255,0)"/>
    </clipPath>
    <linearGradient id="linear-gradient-9" x1="0.678" y1="0.751" x2="0.228" y2="0.347" xlink:href="#linear-gradient"/>
  </defs>
  <g id="Group_45908" data-name="Group 45908" transform="translate(-348 -527)">
    <g id="Group_1" data-name="Group 1" transform="translate(-116 -276)">
      <g id="Group_1-2" data-name="Group 1" transform="translate(-242 268)">
        <g id="Group_1-3" data-name="Group 1" transform="translate(11675 -6442)">
          <g id="Group_45902" data-name="Group 45902" transform="translate(2 42)">
            <g id="Group_45899" data-name="Group 45899" transform="translate(-11251 6923)">
              <g id="Mask_Group_114" data-name="Mask Group 114" transform="translate(323.232 20.154)" clip-path="url(#clip-path)">
                <rect id="Rectangle_7158" data-name="Rectangle 7158" width="14.345" height="20.064" transform="translate(8.027 -4.574) rotate(45)" fill="url(#linear-gradient)"/>
              </g>
              <g id="Mask_Group_115" data-name="Mask Group 115" transform="translate(329.573 39.553)" clip-path="url(#clip-path-2)">
                <rect id="Rectangle_7159" data-name="Rectangle 7159" width="14.345" height="19.397" transform="translate(19.089 -2.969) rotate(90)" fill="url(#linear-gradient)"/>
              </g>
              <g id="Mask_Group_116" data-name="Mask Group 116" transform="translate(327.576 55.232)" clip-path="url(#clip-path-3)">
                <rect id="Rectangle_7160" data-name="Rectangle 7160" width="13.678" height="19.397" transform="translate(19.305 7.691) rotate(135)" fill="url(#linear-gradient)"/>
              </g>
              <g id="Mask_Group_117" data-name="Mask Group 117" transform="translate(314.863 61.573)" clip-path="url(#clip-path-4)">
                <rect id="Rectangle_7161" data-name="Rectangle 7161" width="14.919" height="19.924" transform="translate(11.643 19.391) rotate(-180)" fill="url(#linear-gradient)"/>
              </g>
              <g id="Mask_Group_119" data-name="Mask Group 119" transform="translate(293.406 59.576)" clip-path="url(#clip-path-5)">
                <rect id="Rectangle_7163" data-name="Rectangle 7163" width="14.345" height="19.397" transform="translate(5.428 18.381) rotate(-135)" fill="url(#linear-gradient)"/>
              </g>
              <g id="Mask_Group_121" data-name="Mask Group 121" transform="translate(282.374 46.863)" clip-path="url(#clip-path-6)">
                <rect id="Rectangle_7165" data-name="Rectangle 7165" width="14.345" height="19.397" transform="translate(-0.34 11.013) rotate(-90)" fill="url(#linear-gradient)"/>
              </g>
              <g id="Mask_Group_120" data-name="Mask Group 120" transform="translate(288.155 25.406)" clip-path="url(#clip-path-7)">
                <rect id="Rectangle_7164" data-name="Rectangle 7164" width="14.345" height="20.064" transform="translate(-5.601 7.142) rotate(-45)" fill="url(#linear-gradient)"/>
              </g>
              <path id="Path_75910" data-name="Path 75910" d="M835.642,398.667l-3-2.061c-.178-.128-4.435-2.931-6.347-4.078,0,0-.4-.25-.535-.331-3.013-1.819-6.245-3.467-9.865-3.467a11.139,11.139,0,0,0-6.372,1.963,6.855,6.855,0,0,0-2.3,2.808,6.624,6.624,0,0,0,1.872,7.638,7.709,7.709,0,0,1,2.44-5.964,2.757,2.757,0,0,1,.69-.865,6.153,6.153,0,0,1,3.667-1.094c2.5-.009,5.1,1.376,7.621,2.855h0s3.257,1.968,4.32,2.66c1.712,1.115,6.734,4.631,6.734,4.631.851-.177,1.454-.3,1.526-.312l3.69-.687A7.1,7.1,0,0,1,835.642,398.667Z" transform="translate(-526.715 -348.312)" fill="#05c6aa"/>
              <path id="Path_75906" data-name="Path 75906" d="M871.21,447.037a7.068,7.068,0,0,1-2.4-.419l-3.581.666c-.216.036-5.209,1.064-7.372,1.6,0,0-.46.107-.613.144-3.416.844-6.867,1.965-9.426,4.524a11.141,11.141,0,0,0-3.118,5.894,6.855,6.855,0,0,0,.362,3.61,6.624,6.624,0,0,0,6.724,4.077,7.709,7.709,0,0,1-2.492-5.942,2.76,2.76,0,0,1-.123-1.1,6.152,6.152,0,0,1,1.819-3.367c1.76-1.773,4.578-2.632,7.408-3.371h0s3.695-.912,4.936-1.174c2-.423,8.036-1.487,8.036-1.487.477-.728.816-1.24.859-1.3l2.123-3.094A7.053,7.053,0,0,1,871.21,447.037Z" transform="translate(-555.871 -392.612)" fill="#05c6aa"/>
              <path id="Path_75907" data-name="Path 75907" d="M936.424,456.85a2.755,2.755,0,0,1-.865-.69,6.153,6.153,0,0,1-1.094-3.667c-.009-2.5,1.376-5.1,2.855-7.621h0s1.968-3.257,2.66-4.32c1.115-1.712,4.631-6.734,4.631-6.734-.177-.851-.3-1.454-.311-1.526l-.687-3.69a7.1,7.1,0,0,1-3.7,4.141l-2.062,3c-.128.178-2.931,4.435-4.078,6.347,0,0-.25.4-.332.535-1.818,3.013-3.467,6.245-3.467,9.864a11.138,11.138,0,0,0,1.963,6.372,6.857,6.857,0,0,0,2.808,2.3,6.624,6.624,0,0,0,7.638-1.872A7.708,7.708,0,0,1,936.424,456.85Z" transform="translate(-621.56 -378.991)" fill="#05c6aa"/>
              <path id="Path_75903" data-name="Path 75903" d="M1008.388,427.7a7.709,7.709,0,0,1-5.942,2.492,2.761,2.761,0,0,1-1.1.123,6.153,6.153,0,0,1-3.368-1.819c-1.772-1.76-2.631-4.578-3.37-7.408h0s-.912-3.695-1.174-4.936c-.422-2-1.487-8.036-1.487-8.036-.728-.477-1.24-.816-1.3-.859l-3.094-2.123a7.1,7.1,0,0,1,.315,5.542l.666,3.581c.036.216,1.063,5.208,1.6,7.372,0,0,.107.46.144.613.844,3.416,1.965,6.867,4.524,9.426a11.14,11.14,0,0,0,5.894,3.118,6.857,6.857,0,0,0,3.609-.362A6.624,6.624,0,0,0,1008.388,427.7Z" transform="translate(-665.863 -360.933)" fill="#05c6aa"/>
              <path id="Path_75899" data-name="Path 75899" d="M1000.54,387.53a7.71,7.71,0,0,1-2.44,5.964,2.763,2.763,0,0,1-.69.865,6.153,6.153,0,0,1-3.667,1.095c-2.5.009-5.1-1.376-7.621-2.855h0s-3.257-1.967-4.32-2.659c-1.712-1.115-6.734-4.631-6.734-4.631-.851.177-1.454.3-1.526.311l-3.69.687a7.105,7.105,0,0,1,4.141,3.7l3,2.062c.178.127,4.435,2.931,6.347,4.078,0,0,.4.25.535.331,3.013,1.818,6.245,3.467,9.864,3.467a11.138,11.138,0,0,0,6.372-1.963,6.856,6.856,0,0,0,2.3-2.808A6.625,6.625,0,0,0,1000.54,387.53Z" transform="translate(-652.241 -345.678)" fill="#05c6aa"/>
              <path id="Path_75904" data-name="Path 75904" d="M975.672,304.834a6.624,6.624,0,0,0-6.724-4.078,7.708,7.708,0,0,1,2.492,5.942,2.756,2.756,0,0,1,.124,1.1,6.153,6.153,0,0,1-1.819,3.367c-1.76,1.772-4.578,2.631-7.408,3.371h0s-3.695.912-4.936,1.174c-2,.422-8.036,1.487-8.036,1.487-.476.728-.816,1.24-.859,1.3l-2.123,3.094a7.1,7.1,0,0,1,5.542-.315l3.58-.666c.216-.036,5.209-1.063,7.371-1.6,0,0,.46-.107.613-.144,3.416-.845,6.867-1.965,9.426-4.524a11.138,11.138,0,0,0,3.118-5.894A6.852,6.852,0,0,0,975.672,304.834Z" transform="translate(-634.183 -280.604)" fill="#05c6aa"/>
              <path id="Path_75916" data-name="Path 75916" d="M862.108,329.962a7.072,7.072,0,0,1,.418-2.4l-.666-3.581c-.036-.216-1.063-5.209-1.6-7.371,0,0-.106-.46-.144-.613-.845-3.416-1.964-6.867-4.524-9.426a11.138,11.138,0,0,0-5.894-3.118,6.853,6.853,0,0,0-3.61.362,6.624,6.624,0,0,0-4.077,6.724,7.709,7.709,0,0,1,5.942-2.492,2.759,2.759,0,0,1,1.1-.123,6.154,6.154,0,0,1,3.367,1.819c1.772,1.76,2.631,4.578,3.37,7.408h0s.912,3.694,1.174,4.935c.423,2,1.487,8.036,1.487,8.036.728.476,1.24.816,1.3.859l3.094,2.123A7.055,7.055,0,0,1,862.108,329.962Z" transform="translate(-553.854 -282.623)" fill="#05c6aa"/>
              <path id="Path_75908" data-name="Path 75908" d="M931.25,294.392l2.062-3c.127-.178,2.931-4.435,4.078-6.347,0,0,.25-.4.331-.535,1.818-3.013,3.467-6.245,3.467-9.864a11.137,11.137,0,0,0-1.963-6.372,6.856,6.856,0,0,0-2.808-2.3,6.624,6.624,0,0,0-7.638,1.872,7.708,7.708,0,0,1,5.964,2.44,2.759,2.759,0,0,1,.865.69,6.15,6.15,0,0,1,1.094,3.667c.009,2.5-1.376,5.1-2.855,7.621h0s-1.968,3.258-2.66,4.32c-1.115,1.712-4.63,6.734-4.63,6.734.177.851.3,1.454.311,1.526l.687,3.69A7.106,7.106,0,0,1,931.25,294.392Z" transform="translate(-618.927 -253.465)" fill="#05c6aa"/>
              <g id="Mask_Group_133" data-name="Mask Group 133" transform="translate(11341 -6859)" clip-path="url(#clip-path-8)">
                <rect id="Rectangle_7162" data-name="Rectangle 7162" width="14.967" height="19.257" transform="translate(-11036.229 6872.851)" fill="url(#linear-gradient)"/>
                <rect id="Rectangle_7162-2" data-name="Rectangle 7162" width="14.967" height="19.257" transform="translate(-11063.229 6890.851)" fill="url(#linear-gradient-9)"/>
              </g>
            </g>
            <g id="Group_45900" data-name="Group 45900" transform="translate(-11251 6923)">
              <g id="Group_41512" data-name="Group 41512" transform="translate(358.366 28.521)">
                <g id="Group_41506" data-name="Group 41506">
                  <path id="Path_75987" data-name="Path 75987" d="M1129.8,623.513l2.252-1.7a4.834,4.834,0,0,0,3.923,2.325,2.654,2.654,0,0,0,1.671-.472,1.554,1.554,0,0,0,.605-1.3,1.355,1.355,0,0,0-.411-1.053,7.029,7.029,0,0,0-1.622-.932l-1.72-.775q-3.875-1.719-3.874-4.6a4.057,4.057,0,0,1,1.5-3.281,5.751,5.751,0,0,1,3.8-1.247,6.014,6.014,0,0,1,3.148.811,5.8,5.8,0,0,1,2.131,2.215l-2.228,1.72a3.606,3.606,0,0,0-3.051-1.841,2.343,2.343,0,0,0-1.429.412,1.337,1.337,0,0,0-.557,1.138,1.284,1.284,0,0,0,.4.981,5.759,5.759,0,0,0,1.465.86l1.816.8a8.682,8.682,0,0,1,3,2,3.913,3.913,0,0,1,.944,2.676,4.312,4.312,0,0,1-1.574,3.475,6.043,6.043,0,0,1-4.02,1.32,6.951,6.951,0,0,1-6.175-3.535Z" transform="translate(-1129.801 -610.484)"/>
                  <path id="Path_75988" data-name="Path 75988" d="M1220.866,611.745l-5.5,9.686v6.3H1212.1v-6.272l-5.521-9.71h3.632l3.536,6.344,3.511-6.344Z" transform="translate(-1188.878 -611.453)"/>
                  <path id="Path_75989" data-name="Path 75989" d="M1309.662,610.775h3.269v16.273h-1.09l-9.25-9.88v9.589h-3.269V610.485h1.065l9.275,9.831Z" transform="translate(-1260.239 -610.484)"/>
                  <path id="Path_75990" data-name="Path 75990" d="M1395.217,627.727V611.745h10.752V614.7h-7.483v3.245h5.5v2.785h-5.5v4.044h7.773v2.954Z" transform="translate(-1334.026 -611.453)"/>
                  <path id="Path_75991" data-name="Path 75991" d="M1489.9,627.727h-3.681l-4.141-5.642h-2.4v5.642h-3.269V611.745h6.005a6.036,6.036,0,0,1,4.141,1.429,4.735,4.735,0,0,1,1.623,3.729,5.042,5.042,0,0,1-.739,2.7,4.918,4.918,0,0,1-2.07,1.852Zm-10.219-13.1V619.2h2.736a2.432,2.432,0,0,0,1.78-.63,2.235,2.235,0,0,0,.642-1.671,2.164,2.164,0,0,0-.666-1.647,2.452,2.452,0,0,0-1.755-.629Z" transform="translate(-1396.499 -611.453)"/>
                  <path id="Path_75992" data-name="Path 75992" d="M1559.062,618.763a7.65,7.65,0,0,1,2.458-5.884,8.277,8.277,0,0,1,6.09-2.4,7.8,7.8,0,0,1,6.732,3.463l-2.325,1.913a5.248,5.248,0,0,0-4.456-2.349,4.924,4.924,0,0,0-3.7,1.477,5.34,5.34,0,0,0,3.9,9.129,4.86,4.86,0,0,0,4.214-1.986v-1.308h-4.407v-2.833h7.676v4.722a8.467,8.467,0,0,1-3.124,3.148,8.609,8.609,0,0,1-4.5,1.187,8.15,8.15,0,0,1-6.054-2.385A7.747,7.747,0,0,1,1559.062,618.763Z" transform="translate(-1460.095 -610.481)"/>
                  <path id="Path_75993" data-name="Path 75993" d="M1668.516,611.745l-5.5,9.686v6.3h-3.27v-6.272l-5.521-9.71h3.632l3.536,6.344,3.511-6.344Z" transform="translate(-1533.323 -611.453)"/>
                </g>
              </g>
              <path id="Path_75999" data-name="Path 75999" d="M1551.681,715.425a3.2,3.2,0,0,0,.851,1.427,2.328,2.328,0,0,0,1.58.469,2.684,2.684,0,0,0,.982-.178,2.741,2.741,0,0,0,.813-.488,2.241,2.241,0,0,0,.561-.751,2.3,2.3,0,0,0,.206-.985,2.27,2.27,0,0,0-.347-1.323,2.207,2.207,0,0,0-.892-.751,3.869,3.869,0,0,0-1.2-.328,11.42,11.42,0,0,0-1.3-.075v-1.576a8.323,8.323,0,0,0,1.689-.141,2.841,2.841,0,0,0,1.032-.4,1.4,1.4,0,0,0,.526-.657,2.467,2.467,0,0,0,.15-.882,2,2,0,0,0-.638-1.614,2.373,2.373,0,0,0-1.6-.544,2.224,2.224,0,0,0-1.323.422,2.621,2.621,0,0,0-.892,1.117l-1.839-.62a3.7,3.7,0,0,1,1.6-1.886,4.819,4.819,0,0,1,2.412-.61,5.514,5.514,0,0,1,1.548.216,3.741,3.741,0,0,1,1.3.666,3.2,3.2,0,0,1,.891,1.136,3.68,3.68,0,0,1,.328,1.6,3.018,3.018,0,0,1-.629,1.877,3.125,3.125,0,0,1-1.642,1.126v.038a3.179,3.179,0,0,1,1.108.413,2.965,2.965,0,0,1,.826.751,3.234,3.234,0,0,1,.507,1,4,4,0,0,1,.169,1.173,3.668,3.668,0,0,1-.366,1.68,3.531,3.531,0,0,1-.976,1.2,4.277,4.277,0,0,1-1.407.723,5.722,5.722,0,0,1-1.68.244,5.088,5.088,0,0,1-2.675-.694,3.667,3.667,0,0,1-1.6-2.2Z" transform="translate(-1094.578 -654.722)" fill="#05c6aa"/>
              <path id="Path_76000" data-name="Path 76000" d="M1613.892,711.653h.075a3.326,3.326,0,0,1,1.464-.3,4.558,4.558,0,0,1,1.446.244,3.843,3.843,0,0,1,1.323.76,3.947,3.947,0,0,1,.967,1.314,4.4,4.4,0,0,1,.375,1.886,4.8,4.8,0,0,1-.366,1.943,3.982,3.982,0,0,1-2.431,2.243,5.426,5.426,0,0,1-1.764.282,5.123,5.123,0,0,1-1.765-.3,4.309,4.309,0,0,1-1.445-.863,4.184,4.184,0,0,1-.985-1.351,4.134,4.134,0,0,1-.366-1.764,6.18,6.18,0,0,1,.094-1.126,5.339,5.339,0,0,1,.272-.967,7.3,7.3,0,0,1,.422-.9q.244-.441.545-.929l3.359-5.312h2.121Zm-1.67,4.035a3.022,3.022,0,0,0,.2,1.108,2.491,2.491,0,0,0,.563.873,2.611,2.611,0,0,0,.873.572,3.171,3.171,0,0,0,2.252,0,2.606,2.606,0,0,0,.873-.572,2.51,2.51,0,0,0,.563-.873,3.216,3.216,0,0,0,0-2.215,2.509,2.509,0,0,0-.563-.872,2.614,2.614,0,0,0-.873-.573,3.173,3.173,0,0,0-2.252,0,2.619,2.619,0,0,0-.873.573,2.49,2.49,0,0,0-.563.872A3.025,3.025,0,0,0,1612.222,715.688Z" transform="translate(-1141.248 -655.849)" fill="#05c6aa"/>
              <path id="Path_76001" data-name="Path 76001" d="M1676.469,712.4q0-.732.075-1.52a9.872,9.872,0,0,1,.272-1.549,8.209,8.209,0,0,1,.526-1.455,4.282,4.282,0,0,1,.844-1.211,3.959,3.959,0,0,1,1.22-.826,4.508,4.508,0,0,1,3.285,0,3.96,3.96,0,0,1,1.22.826,4.293,4.293,0,0,1,.845,1.211,8.227,8.227,0,0,1,.525,1.455,9.915,9.915,0,0,1,.272,1.549q.075.788.075,1.52a14.632,14.632,0,0,1-.188,2.252,7.74,7.74,0,0,1-.694,2.234,4.719,4.719,0,0,1-1.4,1.708,4.249,4.249,0,0,1-4.6,0,4.715,4.715,0,0,1-1.4-1.708,7.743,7.743,0,0,1-.694-2.234A14.617,14.617,0,0,1,1676.469,712.4Zm1.8,0q0,.657.084,1.558a7.646,7.646,0,0,0,.366,1.736,3.775,3.775,0,0,0,.835,1.417,2.2,2.2,0,0,0,2.984,0,3.771,3.771,0,0,0,.836-1.417,7.646,7.646,0,0,0,.366-1.736q.084-.9.085-1.558,0-.451-.028-1.023a9.544,9.544,0,0,0-.131-1.164,7.729,7.729,0,0,0-.291-1.145,3.907,3.907,0,0,0-.5-.995,2.392,2.392,0,0,0-.76-.7,2.309,2.309,0,0,0-2.14,0,2.4,2.4,0,0,0-.76.7,3.9,3.9,0,0,0-.5.995,7.624,7.624,0,0,0-.291,1.145,9.475,9.475,0,0,0-.132,1.164Q1678.271,711.952,1678.271,712.4Z" transform="translate(-1192.069 -655.098)" fill="#05c6aa"/>
              <g id="Group_41507" data-name="Group 41507" transform="translate(358.376 50.597)">
                <path id="Path_75994" data-name="Path 75994" d="M1129.845,720.032V707.161h2.067v5.129h6.475v-5.129h2.067v12.871h-2.067v-5.889h-6.475v5.889Z" transform="translate(-1129.845 -706.946)"/>
                <path id="Path_75995" data-name="Path 75995" d="M1206.9,720.032V707.161h8.464v1.853h-6.4v3.3h4.817V714.1h-4.817v4.076h6.63v1.852Z" transform="translate(-1189.138 -706.946)"/>
                <path id="Path_75996" data-name="Path 75996" d="M1344.863,720.032V707.161h2.067v11.018h5.89v1.852Z" transform="translate(-1295.291 -706.946)"/>
                <path id="Path_75997" data-name="Path 75997" d="M1393.431,720.032V709.014H1389.1v-1.853h10.745v1.853H1395.5v11.018Z" transform="translate(-1329.331 -706.946)"/>
                <path id="Path_75998" data-name="Path 75998" d="M1461,720.032V707.161h2.068v5.129h6.474v-5.129h2.067v12.871h-2.067v-5.889h-6.474v5.889Z" transform="translate(-1384.652 -706.946)"/>
                <path id="Path_76002" data-name="Path 76002" d="M1276.615,719.319l-.916-2.146h-5.793l-.917,2.146h-2.2l5.676-13.088h.7l5.676,13.088Zm-1.658-3.921-2.146-5.325-2.165,5.325Z" transform="translate(-1235.215 -706.231)"/>
              </g>
              <g id="Group_41542" data-name="Group 41542" transform="translate(358.366 70.357)" opacity="0.6">
                <path id="Path_76035" data-name="Path 76035" d="M842.22,528.751v-5.119h.823v5.119Z" transform="translate(-842.22 -523.546)"/>
                <path id="Path_76036" data-name="Path 76036" d="M856.889,523.343h.822v5.2h-.279L854.314,525v3.467h-.822v-5.2h.287l3.11,3.537Z" transform="translate(-850.917 -523.258)"/>
                <path id="Path_76037" data-name="Path 76037" d="M879.116,528.751v-4.382h-1.722v-.737h4.274v.737h-1.73v4.382Z" transform="translate(-869.358 -523.546)"/>
                <path id="Path_76038" data-name="Path 76038" d="M901.5,528.751v-5.119h3.366v.737h-2.544v1.311h1.916v.714h-1.916v1.621h2.637v.737Z" transform="translate(-887.957 -523.546)"/>
                <path id="Path_76039" data-name="Path 76039" d="M920.985,525.9a2.452,2.452,0,0,1,.779-1.877,2.6,2.6,0,0,1,1.92-.768,2.464,2.464,0,0,1,2.118,1.07l-.6.489a1.786,1.786,0,0,0-1.528-.807,1.756,1.756,0,0,0-1.322.535,1.866,1.866,0,0,0-.516,1.35,1.886,1.886,0,0,0,.531,1.369,1.8,1.8,0,0,0,1.353.547,1.7,1.7,0,0,0,1.528-.776v-.551h-1.575v-.729h2.4V527.2a2.575,2.575,0,0,1-.985.985,2.771,2.771,0,0,1-1.4.365,2.589,2.589,0,0,1-1.92-.764A2.484,2.484,0,0,1,920.985,525.9Z" transform="translate(-902.99 -523.257)"/>
                <path id="Path_76040" data-name="Path 76040" d="M953.868,528.751h-.939l-1.458-1.978h-.939v1.978h-.822v-5.119h1.869a1.794,1.794,0,0,1,1.257.438,1.459,1.459,0,0,1,.481,1.129,1.53,1.53,0,0,1-.26.884,1.5,1.5,0,0,1-.725.558Zm-3.335-4.39v1.683h1.032a.931.931,0,0,0,.663-.229.793.793,0,0,0,.244-.609.807.807,0,0,0-.244-.613.922.922,0,0,0-.663-.233Z" transform="translate(-925.153 -523.546)"/>
                <path id="Path_76041" data-name="Path 76041" d="M975.009,528.463l-.365-.853h-2.3l-.364.853H971.1l2.257-5.2h.279l2.257,5.2Zm-.66-1.559-.853-2.118-.861,2.118Z" transform="translate(-941.657 -523.258)"/>
                <path id="Path_76042" data-name="Path 76042" d="M994.584,528.751v-4.382h-1.722v-.737h4.274v.737h-1.73v4.382Z" transform="translate(-958.447 -523.546)"/>
                <path id="Path_76043" data-name="Path 76043" d="M1016.968,528.751v-5.119h3.366v.737h-2.544v1.311h1.916v.714h-1.916v1.621h2.637v.737Z" transform="translate(-977.046 -523.546)"/>
                <path id="Path_76044" data-name="Path 76044" d="M1038.323,528.751v-5.119h1.605a2.863,2.863,0,0,1,2.017.706,2.391,2.391,0,0,1,.768,1.846,2.415,2.415,0,0,1-.772,1.846,2.83,2.83,0,0,1-2.013.721Zm.822-.737h.775a1.961,1.961,0,0,0,1.416-.508,1.747,1.747,0,0,0,.532-1.323,1.713,1.713,0,0,0-.528-1.315,2,2,0,0,0-1.42-.493h-.775Z" transform="translate(-993.522 -523.546)"/>
                <path id="Path_76045" data-name="Path 76045" d="M1074.038,525.9a2.444,2.444,0,0,1,.783-1.877,2.59,2.59,0,0,1,1.908-.768,2.624,2.624,0,0,1,1.28.318,2.406,2.406,0,0,1,.915.861l-.62.458a1.852,1.852,0,0,0-2.886-.345,2,2,0,0,0,0,2.707,1.852,1.852,0,0,0,2.886-.345l.62.458a2.362,2.362,0,0,1-.911.865,2.642,2.642,0,0,1-1.284.314,2.591,2.591,0,0,1-1.908-.768A2.444,2.444,0,0,1,1074.038,525.9Z" transform="translate(-1021.077 -523.257)"/>
                <path id="Path_76046" data-name="Path 76046" d="M1103.277,528.463l-.365-.853h-2.3l-.364.853h-.877l2.257-5.2h.279l2.257,5.2Zm-.66-1.559-.853-2.118-.861,2.118Z" transform="translate(-1040.621 -523.258)"/>
                <path id="Path_76047" data-name="Path 76047" d="M1130.109,528.751h-.939l-1.458-1.978h-.939v1.978h-.822v-5.119h1.869a1.794,1.794,0,0,1,1.257.438,1.458,1.458,0,0,1,.481,1.129,1.529,1.529,0,0,1-.26.884,1.5,1.5,0,0,1-.725.558Zm-3.335-4.39v1.683h1.032a.93.93,0,0,0,.663-.229.793.793,0,0,0,.245-.609.807.807,0,0,0-.245-.613.921.921,0,0,0-.663-.233Z" transform="translate(-1061.132 -523.546)"/>
                <path id="Path_76048" data-name="Path 76048" d="M1149.412,528.751v-5.119h3.366v.737h-2.544v1.311h1.916v.714h-1.916v1.621h2.637v.737Z" transform="translate(-1079.232 -523.546)"/>
                <g id="Group_41532" data-name="Group 41532" transform="translate(81.177 0)">
                  <path id="Path_76049" data-name="Path 76049" d="M1197.549,528.751v-5.119h3.366v.737h-2.544v1.311h1.916v.714h-1.916v1.621h2.637v.737Z" transform="translate(-1197.549 -523.547)"/>
                  <path id="Path_76050" data-name="Path 76050" d="M1220.7,523.632h.923l-2.257,5.2h-.279l-2.257-5.2h.923l1.473,3.56Z" transform="translate(-1212.428 -523.547)"/>
                  <path id="Path_76051" data-name="Path 76051" d="M1243.417,528.751v-5.119h3.366v.737h-2.544v1.311h1.916v.714h-1.916v1.621h2.637v.737Z" transform="translate(-1232.938 -523.547)"/>
                  <path id="Path_76052" data-name="Path 76052" d="M1268.93,528.751h-.938l-1.458-1.978h-.938v1.978h-.823v-5.119h1.87a1.792,1.792,0,0,1,1.256.438,1.457,1.457,0,0,1,.481,1.129,1.528,1.528,0,0,1-.26.884,1.5,1.5,0,0,1-.725.558Zm-3.335-4.39v1.683h1.031a.932.932,0,0,0,.663-.229.794.794,0,0,0,.244-.609.807.807,0,0,0-.244-.613.923.923,0,0,0-.663-.233Z" transform="translate(-1249.414 -523.547)"/>
                  <path id="Path_76053" data-name="Path 76053" d="M1289.571,523.632l-1.769,3.056v2.063h-.822v-2.063l-1.768-3.056h.916l1.264,2.226,1.272-2.226Z" transform="translate(-1265.185 -523.547)"/>
                  <path id="Path_76054" data-name="Path 76054" d="M1315.23,523.343h.9l-1.993,5.2h-.271l-1.528-3.63-1.528,3.63h-.279l-1.993-5.2h.907l1.28,3.459,1.466-3.545h.287l1.474,3.545Z" transform="translate(-1283.18 -523.258)"/>
                  <path id="Path_76055" data-name="Path 76055" d="M1347.852,528.751v-5.119h.823v2.04h2.575v-2.04h.822v5.119h-.822v-2.343h-2.575v2.343Z" transform="translate(-1313.514 -523.547)"/>
                  <path id="Path_76056" data-name="Path 76056" d="M1374.029,528.751v-5.119h3.366v.737h-2.544v1.311h1.916v.714h-1.916v1.621h2.637v.737Z" transform="translate(-1333.711 -523.547)"/>
                  <path id="Path_76057" data-name="Path 76057" d="M1399.542,528.751h-.938l-1.458-1.978h-.938v1.978h-.822v-5.119h1.869a1.792,1.792,0,0,1,1.256.438,1.457,1.457,0,0,1,.481,1.129,1.528,1.528,0,0,1-.26.884,1.5,1.5,0,0,1-.725.558Zm-3.335-4.39v1.683h1.032a.932.932,0,0,0,.663-.229.794.794,0,0,0,.244-.609.808.808,0,0,0-.244-.613.923.923,0,0,0-.663-.233Z" transform="translate(-1350.188 -523.547)"/>
                  <path id="Path_76058" data-name="Path 76058" d="M1418.845,528.751v-5.119h3.366v.737h-2.544v1.311h1.916v.714h-1.916v1.621h2.637v.737Z" transform="translate(-1368.289 -523.547)"/>
                </g>
                <circle id="Ellipse_2901" data-name="Ellipse 2901" cx="0.821" cy="0.821" r="0.821" transform="translate(76.588 1.768)"/>
              </g>
            </g>
          </g>
        </g>
      </g>
    </g>
  </g>
</svg>
