<svg width="124" height="44" viewBox="0 0 124 44" fill="none" xmlns="http://www.w3.org/2000/svg">
<rect x="61.0322" width="62.4516" height="44" rx="8.51613" fill="#270F56"/>
<path d="M18.6222 17.3731L11.7241 33.5821C11.0239 35.3421 10.1534 36.5817 9.11252 37.3008C8.09058 38.02 6.85101 38.3795 5.39381 38.3795C4.59897 38.3795 3.81359 38.2565 3.03768 38.0105C2.26176 37.7645 1.62779 37.4238 1.13574 36.9886L2.75381 33.8376C3.09445 34.1404 3.48241 34.377 3.91768 34.5473C4.37187 34.7176 4.8166 34.8028 5.25187 34.8028C5.85746 34.8028 6.34951 34.6514 6.728 34.3486C7.1065 34.0647 7.44714 33.5821 7.74994 32.9008L7.80671 32.7589L1.19252 17.3731H5.76284L10.0493 27.7344L14.3641 17.3731H18.6222Z" fill="#270F56"/>
<path d="M27.2805 32.8724C25.6719 32.8724 24.2241 32.5413 22.9373 31.8789C21.6693 31.1976 20.6757 30.2608 19.9566 29.0686C19.2375 27.8763 18.8779 26.5232 18.8779 25.0092C18.8779 23.4952 19.2375 22.1421 19.9566 20.9499C20.6757 19.7576 21.6693 18.8303 22.9373 18.1679C24.2241 17.4866 25.6719 17.146 27.2805 17.146C28.8891 17.146 30.3274 17.4866 31.5953 18.1679C32.8633 18.8303 33.8568 19.7576 34.576 20.9499C35.2951 22.1421 35.6547 23.4952 35.6547 25.0092C35.6547 26.5232 35.2951 27.8763 34.576 29.0686C33.8568 30.2608 32.8633 31.1976 31.5953 31.8789C30.3274 32.5413 28.8891 32.8724 27.2805 32.8724ZM27.2805 29.2389C28.416 29.2389 29.3433 28.8604 30.0624 28.1034C30.8005 27.3275 31.1695 26.2961 31.1695 25.0092C31.1695 23.7223 30.8005 22.7004 30.0624 21.9434C29.3433 21.1675 28.416 20.7795 27.2805 20.7795C26.145 20.7795 25.2082 21.1675 24.4702 21.9434C23.7321 22.7004 23.3631 23.7223 23.3631 25.0092C23.3631 26.2961 23.7321 27.3275 24.4702 28.1034C25.2082 28.8604 26.145 29.2389 27.2805 29.2389Z" fill="#270F56"/>
<path d="M54.0005 17.3731V32.6454H49.7992V30.8286C49.2125 31.4909 48.5123 32.0019 47.6986 32.3615C46.8848 32.7021 46.0048 32.8724 45.0586 32.8724C43.0525 32.8724 41.4629 32.2952 40.2895 31.1408C39.1162 29.9864 38.5295 28.2737 38.5295 26.0028V17.3731H42.9579V25.3499C42.9579 27.8101 43.9893 29.0402 46.0521 29.0402C47.1119 29.0402 47.9635 28.6995 48.607 28.0183C49.2504 27.318 49.5721 26.2866 49.5721 24.9241V17.3731H54.0005Z" fill="#270F56"/>
<path d="M85.9279 14.5342V27.2516C85.9279 30.0525 85.1993 32.1342 83.7421 33.4968C82.2849 34.8594 80.1559 35.5407 77.355 35.5407C75.8789 35.5407 74.4785 35.3609 73.1537 35.0013C71.829 34.6417 70.7314 34.1213 69.8608 33.44L71.6208 30.2607C72.2643 30.7906 73.078 31.2069 74.0621 31.5097C75.0462 31.8314 76.0303 31.9923 77.0144 31.9923C78.5473 31.9923 79.6733 31.6422 80.3924 30.9419C81.1305 30.2607 81.4995 29.2198 81.4995 27.8194V27.1665C80.3451 28.4344 78.7365 29.0684 76.6737 29.0684C75.2733 29.0684 73.9864 28.7656 72.8131 28.16C71.6587 27.5355 70.7408 26.665 70.0595 25.5484C69.3782 24.4318 69.0376 23.145 69.0376 21.6878C69.0376 20.2306 69.3782 18.9437 70.0595 17.8271C70.7408 16.7106 71.6587 15.8495 72.8131 15.2439C73.9864 14.6194 75.2733 14.3071 76.6737 14.3071C78.8879 14.3071 80.5722 15.0357 81.7266 16.4929V14.5342H85.9279ZM77.5537 25.4349C78.7271 25.4349 79.6828 25.0942 80.4208 24.4129C81.1778 23.7127 81.5563 22.8043 81.5563 21.6878C81.5563 20.5712 81.1778 19.6723 80.4208 18.991C79.6828 18.2908 78.7271 17.9407 77.5537 17.9407C76.3804 17.9407 75.4152 18.2908 74.6582 18.991C73.9013 19.6723 73.5228 20.5712 73.5228 21.6878C73.5228 22.8043 73.9013 23.7127 74.6582 24.4129C75.4152 25.0942 76.3804 25.4349 77.5537 25.4349Z" fill="white"/>
<path d="M90.0496 14.5342H94.478V29.8065H90.0496V14.5342ZM92.2638 12.4052C91.45 12.4052 90.7877 12.1686 90.2767 11.6955C89.7657 11.2224 89.5102 10.6357 89.5102 9.9355C89.5102 9.23528 89.7657 8.64862 90.2767 8.1755C90.7877 7.70238 91.45 7.46582 92.2638 7.46582C93.0776 7.46582 93.7399 7.69292 94.2509 8.14711C94.7619 8.60131 95.0173 9.16905 95.0173 9.85034C95.0173 10.5884 94.7619 11.2035 94.2509 11.6955C93.7399 12.1686 93.0776 12.4052 92.2638 12.4052Z" fill="white"/>
<path d="M114.343 14.5342V27.2516C114.343 30.0525 113.614 32.1342 112.157 33.4968C110.7 34.8594 108.571 35.5407 105.77 35.5407C104.294 35.5407 102.893 35.3609 101.569 35.0013C100.244 34.6417 99.1462 34.1213 98.2756 33.44L100.036 30.2607C100.679 30.7906 101.493 31.2069 102.477 31.5097C103.461 31.8314 104.445 31.9923 105.429 31.9923C106.962 31.9923 108.088 31.6422 108.807 30.9419C109.545 30.2607 109.914 29.2198 109.914 27.8194V27.1665C108.76 28.4344 107.151 29.0684 105.089 29.0684C103.688 29.0684 102.401 28.7656 101.228 28.16C100.073 27.5355 99.1556 26.665 98.4744 25.5484C97.7931 24.4318 97.4524 23.145 97.4524 21.6878C97.4524 20.2306 97.7931 18.9437 98.4744 17.8271C99.1556 16.7106 100.073 15.8495 101.228 15.2439C102.401 14.6194 103.688 14.3071 105.089 14.3071C107.303 14.3071 108.987 15.0357 110.141 16.4929V14.5342H114.343ZM105.969 25.4349C107.142 25.4349 108.098 25.0942 108.836 24.4129C109.593 23.7127 109.971 22.8043 109.971 21.6878C109.971 20.5712 109.593 19.6723 108.836 18.991C108.098 18.2908 107.142 17.9407 105.969 17.9407C104.795 17.9407 103.83 18.2908 103.073 18.991C102.316 19.6723 101.938 20.5712 101.938 21.6878C101.938 22.8043 102.316 23.7127 103.073 24.4129C103.83 25.0942 104.795 25.4349 105.969 25.4349Z" fill="white"/>
<mask id="mask0" mask-type="alpha" maskUnits="userSpaceOnUse" x="69" y="7" width="46" height="29">
<path d="M85.9279 14.5342V27.2516C85.9279 30.0525 85.1993 32.1342 83.7421 33.4968C82.2849 34.8594 80.1559 35.5407 77.355 35.5407C75.8789 35.5407 74.4785 35.3609 73.1537 35.0013C71.829 34.6417 70.7314 34.1213 69.8608 33.44L71.6208 30.2607C72.2643 30.7906 73.078 31.2069 74.0621 31.5097C75.0462 31.8314 76.0303 31.9923 77.0144 31.9923C78.5473 31.9923 79.6733 31.6422 80.3924 30.9419C81.1305 30.2607 81.4995 29.2198 81.4995 27.8194V27.1665C80.3451 28.4344 78.7365 29.0684 76.6737 29.0684C75.2733 29.0684 73.9864 28.7656 72.8131 28.16C71.6587 27.5355 70.7408 26.665 70.0595 25.5484C69.3782 24.4318 69.0376 23.145 69.0376 21.6878C69.0376 20.2306 69.3782 18.9437 70.0595 17.8271C70.7408 16.7106 71.6587 15.8495 72.8131 15.2439C73.9864 14.6194 75.2733 14.3071 76.6737 14.3071C78.8879 14.3071 80.5722 15.0357 81.7266 16.4929V14.5342H85.9279ZM77.5537 25.4349C78.7271 25.4349 79.6828 25.0942 80.4208 24.4129C81.1778 23.7127 81.5563 22.8043 81.5563 21.6878C81.5563 20.5712 81.1778 19.6723 80.4208 18.991C79.6828 18.2908 78.7271 17.9407 77.5537 17.9407C76.3804 17.9407 75.4152 18.2908 74.6582 18.991C73.9013 19.6723 73.5228 20.5712 73.5228 21.6878C73.5228 22.8043 73.9013 23.7127 74.6582 24.4129C75.4152 25.0942 76.3804 25.4349 77.5537 25.4349Z" fill="white"/>
<path d="M90.0496 14.5342H94.478V29.8065H90.0496V14.5342ZM92.2638 12.4052C91.45 12.4052 90.7877 12.1686 90.2767 11.6955C89.7657 11.2224 89.5102 10.6357 89.5102 9.9355C89.5102 9.23528 89.7657 8.64862 90.2767 8.1755C90.7877 7.70238 91.45 7.46582 92.2638 7.46582C93.0776 7.46582 93.7399 7.69292 94.2509 8.14711C94.7619 8.60131 95.0173 9.16905 95.0173 9.85034C95.0173 10.5884 94.7619 11.2035 94.2509 11.6955C93.7399 12.1686 93.0776 12.4052 92.2638 12.4052Z" fill="white"/>
<path d="M114.343 14.5342V27.2516C114.343 30.0525 113.614 32.1342 112.157 33.4968C110.7 34.8594 108.571 35.5407 105.77 35.5407C104.294 35.5407 102.893 35.3609 101.569 35.0013C100.244 34.6417 99.1462 34.1213 98.2756 33.44L100.036 30.2607C100.679 30.7906 101.493 31.2069 102.477 31.5097C103.461 31.8314 104.445 31.9923 105.429 31.9923C106.962 31.9923 108.088 31.6422 108.807 30.9419C109.545 30.2607 109.914 29.2198 109.914 27.8194V27.1665C108.76 28.4344 107.151 29.0684 105.089 29.0684C103.688 29.0684 102.401 28.7656 101.228 28.16C100.073 27.5355 99.1556 26.665 98.4744 25.5484C97.7931 24.4318 97.4524 23.145 97.4524 21.6878C97.4524 20.2306 97.7931 18.9437 98.4744 17.8271C99.1556 16.7106 100.073 15.8495 101.228 15.2439C102.401 14.6194 103.688 14.3071 105.089 14.3071C107.303 14.3071 108.987 15.0357 110.141 16.4929V14.5342H114.343ZM105.969 25.4349C107.142 25.4349 108.098 25.0942 108.836 24.4129C109.593 23.7127 109.971 22.8043 109.971 21.6878C109.971 20.5712 109.593 19.6723 108.836 18.991C108.098 18.2908 107.142 17.9407 105.969 17.9407C104.795 17.9407 103.83 18.2908 103.073 18.991C102.316 19.6723 101.938 20.5712 101.938 21.6878C101.938 22.8043 102.316 23.7127 103.073 24.4129C103.83 25.0942 104.795 25.4349 105.969 25.4349Z" fill="white"/>
</mask>
<g mask="url(#mask0)">
<rect x="88" y="5.67725" width="8.51613" height="32.6452" fill="white"/>
</g>
</svg>
